<svg id="Слой_1" data-name="Слой 1" fill="#fff" xmlns="http://www.w3.org/2000/svg" viewBox="0 0 400 460"><title>logo</title><path d="M121.83,301.59q-0.48,4.3-1.11,8a68,68,0,0,1-1.63,7.27,43.93,43.93,0,0,1-2.66,7,46.13,46.13,0,0,1-4.35,7.17,54.79,54.79,0,0,1-7.52,8.29A49.63,49.63,0,0,1,95,346.08a44.59,44.59,0,0,1-11.38,4.27,45.11,45.11,0,0,1-13.1,1,31.29,31.29,0,0,1-14-4,33.21,33.21,0,0,1-10-9,43.42,43.42,0,0,1-6.34-12.46,65.18,65.18,0,0,1-2.94-14.36,73.27,73.27,0,0,1,.13-14.69,62.48,62.48,0,0,1,3-13.56,53.67,53.67,0,0,1-3.13-5.34q-1.57-3-2.91-6.29a54,54,0,0,1-2.26-6.77A35.46,35.46,0,0,1,31,258a2,2,0,0,1,.22-1.33,1.52,1.52,0,0,1,.73-0.76,0.84,0.84,0,0,1,.84.27,2.65,2.65,0,0,1,.63,1.59,47.45,47.45,0,0,0,3.42,11.12,96,96,0,0,0,4.93,9.71q4.89-14.87,15.1-24.23a51.79,51.79,0,0,1,24-12.48,38.44,38.44,0,0,1,15-.9,25.44,25.44,0,0,1,10.88,4.23,20.9,20.9,0,0,1,6.69,8,24.89,24.89,0,0,1,2.46,10.33,31.07,31.07,0,0,1-1.91,11.25,33.88,33.88,0,0,1-6.4,10.77,42.45,42.45,0,0,1-11,8.89A51,51,0,0,1,80.86,300a45,45,0,0,1-17.93.07q-8.82-1.77-16.34-9.25a35.83,35.83,0,0,0-.91,6.64,84.7,84.7,0,0,0,0,11.33,90.86,90.86,0,0,0,1.86,13.42A43.72,43.72,0,0,0,52.29,335a28.14,28.14,0,0,0,8.56,9.37q5.29,3.64,13.31,3.31a49.73,49.73,0,0,0,19.5-5.19,48.22,48.22,0,0,0,16.12-12.64,35.94,35.94,0,0,0,4.68-6.78,44.48,44.48,0,0,0,2.88-6.9A45.08,45.08,0,0,0,119,308.9q0.55-3.76,1.07-7.95,0.16-1.68,1.09-1.51T121.83,301.59ZM83.34,245.73a35.33,35.33,0,0,0-12.21,4.94,46.48,46.48,0,0,0-10.27,9,59.36,59.36,0,0,0-8,12.21,68.74,68.74,0,0,0-5.29,14.63q7.16,8.24,15.86,10.36a38.55,38.55,0,0,0,18.17-.1q10.41-2.42,17-7.61a33.39,33.39,0,0,0,9.59-11.46A26.24,26.24,0,0,0,110.92,265a21.28,21.28,0,0,0-3.54-11.27A19.68,19.68,0,0,0,98,246.5Q91.89,244.09,83.34,245.73Z"/><path d="M150.76,291.38q-0.32,3-.85,6.81a69.39,69.39,0,0,1-1.47,7.53,31.5,31.5,0,0,1-2.59,6.86,12.42,12.42,0,0,1-4.08,4.75,6.62,6.62,0,0,1-3.23,1,5.89,5.89,0,0,1-3.71-1.13,9.15,9.15,0,0,1-3-4,18.15,18.15,0,0,1-1.09-7.69q0.08-1.9.36-4.13t0.71-4.38q0.43-2.15.77-4c0.23-1.25.37-2.26,0.43-3q0.24-3.21-2.73-3.48a20.19,20.19,0,0,0-7.68,1.27l-0.08,4q-0.06,3-.31,6.93t-0.79,8a73.71,73.71,0,0,1-1.47,7.9,33.55,33.55,0,0,1-2.22,6.48c-0.31.53-.67,0.63-1.08,0.32a1.25,1.25,0,0,1-.32-1.45,74,74,0,0,0,2.76-11.67,111.54,111.54,0,0,0,1.22-12.32,111.42,111.42,0,0,0-.12-12Q119.77,278,119,273.06a4.34,4.34,0,0,1,.7-3.69,2.8,2.8,0,0,1,2.59-1,5.32,5.32,0,0,1,3,1.76,8,8,0,0,1,1.91,4.52,9.85,9.85,0,0,1-1.06,5.32,28.81,28.81,0,0,1-2.43,4.3q3.19-.88,7.22-2.42t8-3.44a2.57,2.57,0,0,1,.74,1.55,14.91,14.91,0,0,1,.23,2.42q0,1.31-.08,2.78t-0.2,2.63l-0.44,3.53q-0.31,2.49-.67,5.56t-0.5,6.37a38.35,38.35,0,0,0,.14,5.89,10.67,10.67,0,0,0,1.12,4,2,2,0,0,0,2.54,1q1.67-.59,2.94-3.54a41,41,0,0,0,2.16-6.64,72.58,72.58,0,0,0,1.38-7.43q0.49-3.74.75-5.84,0.27-1.72,1.15-1.53T150.76,291.38Z"/><path d="M154.61,302.29a11.12,11.12,0,0,0,1.3,4.92,2.86,2.86,0,0,0,3.51,1.26,4.49,4.49,0,0,0,2.49-1.44,9.44,9.44,0,0,0,1.77-2.44,37.44,37.44,0,0,0,2.82-9.38q1-5.62,1.71-11.12c0.08-1.2.43-1.73,1.05-1.62s0.87,0.82.75,2.12q-0.29,2.73-.74,6.77a52.86,52.86,0,0,1-1.57,8.13,30.78,30.78,0,0,1-3,7.31,9.27,9.27,0,0,1-5,4.32,7.52,7.52,0,0,1-5.29.24,7.38,7.38,0,0,1-3.5-2.83,12.9,12.9,0,0,1-1.87-4.59,20.82,20.82,0,0,1-.45-5.16l0.72-20.65a3.37,3.37,0,0,0-1.08-2.87,18.08,18.08,0,0,0-1.69-1.41l6.08-2.27q2.67-.94,3.28-0.09a5.1,5.1,0,0,1,.43,3.16l-1.56,23.95a5.83,5.83,0,0,1-.08,1.53l-0.05,1.27Q154.64,302,154.61,302.29Zm2.61-42.59a5.72,5.72,0,0,1-.75,3.89,5.49,5.49,0,0,1-3,2.55,3.93,3.93,0,0,1-3.48-.28,4.32,4.32,0,0,1-2-2.91,5.72,5.72,0,0,1,.75-3.89,5.49,5.49,0,0,1,3-2.55,4.1,4.1,0,0,1,3.53.26A3.91,3.91,0,0,1,157.22,259.7Z"/><path d="M198.7,273.71q-0.34,4-.93,8.9a37.18,37.18,0,0,1-2.26,9.18,20.71,20.71,0,0,1-4.74,7.3,11.94,11.94,0,0,1-8.25,3.22,12.38,12.38,0,0,1-4.17,2.72q-5,1.77-8.13.18a9.35,9.35,0,0,1-4.44-4.44,10.08,10.08,0,0,1-.9-5.75q0.41-2.9,2.38-3.72,0.73-5,1.48-11T170,268.69a33,33,0,0,1,.62-3.91,23.8,23.8,0,0,1,1.13-3.71,13.58,13.58,0,0,1,1.72-3.11,7.46,7.46,0,0,1,6.7-3q1.83,0.23,1.94,1.25t-1.72.8a8.28,8.28,0,0,0-1.94.18,3.25,3.25,0,0,0-1.66,1,5.8,5.8,0,0,0-1.78,3.63,10.86,10.86,0,0,0,.41,4.17,18,18,0,0,0,1.73,4,15.91,15.91,0,0,0,2.29,3.13q2.47,2.76,5,5.36a14.73,14.73,0,0,1,3.62,6.36,15,15,0,0,1-.09,7.54,21.13,21.13,0,0,1-3.45,7.6l0.82-.16a8.33,8.33,0,0,0,5-3,19.2,19.2,0,0,0,3.18-5.69,18.69,18.69,0,0,0,1-3.68q0.41-2.21.81-4.61t0.74-4.83q0.33-2.43.63-4.42a1,1,0,0,1,1.08-1A0.81,0.81,0,0,1,198.7,273.71Zm-17.38,13.52a37.86,37.86,0,0,0-2.19-5.49q-1.35-2.77-2.75-5.47t-2.52-5.18a18.25,18.25,0,0,1-1.46-4.49q-0.33,2.62-.72,5.95t-0.83,6.68L170,285.65q-0.41,3.09-.79,5.22a1.76,1.76,0,0,1,1.38,0,2.88,2.88,0,0,1,1.15.78,5.34,5.34,0,0,1,1.06,1.94,8.94,8.94,0,0,0,3.2,5,9.14,9.14,0,0,0,4.49,1.92,12.55,12.55,0,0,0,1.77-5.44A19.91,19.91,0,0,0,181.32,287.22Zm-2.35,15a9.85,9.85,0,0,1-4.1-2.05,12.18,12.18,0,0,1-3.29-4.72,7.09,7.09,0,0,0-.76,3.52,5.65,5.65,0,0,0,.89,2.88,4.4,4.4,0,0,0,2.16,1.68,4.33,4.33,0,0,0,3-.07A5.24,5.24,0,0,0,179,302.19Z"/><path d="M216.79,243.42a0.65,0.65,0,0,1,.75.17,1.71,1.71,0,0,1,.41.8,2.38,2.38,0,0,1,0,.93,0.77,0.77,0,0,1-.53.63L211,248.22a95.52,95.52,0,0,1-3,11.59,76.36,76.36,0,0,1-5.28,12,19.29,19.29,0,0,0,.23,3.3q0.28,2,.5,4.08,0.3,2.27.72,4.88a8.57,8.57,0,0,0,1.44,4.43,4.3,4.3,0,0,0,2.47,1.69,4,4,0,0,0,2.81-.55,7.14,7.14,0,0,0,2.44-2.3,27.82,27.82,0,0,0,4.06-9.94q1.19-5.67,1.8-11,0.12-1.79,1.05-1.81c0.62,0,.83.65,0.63,2q-0.52,4.57-1,7.59T219,279.51a27.33,27.33,0,0,1-1.2,4.24q-0.71,1.88-1.72,4a11.11,11.11,0,0,1-4.15,4.72,9.66,9.66,0,0,1-5.49,1.63,8.15,8.15,0,0,1-5.25-2.28q-2.46-2.19-3.41-7a51.38,51.38,0,0,1-1-6.85q-0.33-3.95-.5-8.15t-0.11-8.47q0.05-4.27.25-8l-5.79,2a0.77,0.77,0,0,1-.8-0.15,1.38,1.38,0,0,1-.46-0.78,1.92,1.92,0,0,1,0-1,0.9,0.9,0,0,1,.58-0.64l6.68-2.36q0.4-4.89,1-9.63t1.5-9a22.22,22.22,0,0,1,3.64-9.36q2.51-3.33,5-3.39t4.13,3.55q1.65,3.61.89,11.39-0.61,5.72-1.41,11.26ZM203.19,251q-0.33,4.75-.45,9.17t-0.33,7.75a64.82,64.82,0,0,0,3.53-9.13q1.44-4.76,2.48-9.63Zm7.37-18.12a26.19,26.19,0,0,0-.12-4.59,11.84,11.84,0,0,0-.93-3.86q-0.66-1.33-1.65-.61t-2.26,5.3a46.38,46.38,0,0,0-1.36,8.55q-0.38,5-.8,10.48l5.56-2A121.85,121.85,0,0,0,210.56,232.86Z"/><path d="M277.34,246.57q-0.32,3-.9,7.2a59.52,59.52,0,0,1-1.76,8.32,30.78,30.78,0,0,1-3.19,7.45,9.36,9.36,0,0,1-8.44,5,5.7,5.7,0,0,1-3.34-1.13,8.6,8.6,0,0,1-2.69-3.55,18.16,18.16,0,0,1-1.26-6.75,28.27,28.27,0,0,1,.44-5.85q0.56-3.39,1.56-8a7.57,7.57,0,0,0,.09-3.29,1.23,1.23,0,0,0-1.34-1.15q-1,.11-2.64,1.93a31.46,31.46,0,0,0-3.78,6,61.1,61.1,0,0,0-2.65,6.13,84.25,84.25,0,0,0-2.6,8.05,79.47,79.47,0,0,0-1.78,8.26,25.43,25.43,0,0,0-.33,6.69,3.46,3.46,0,0,1-3.6-.8A6.5,6.5,0,0,1,237,277a26.63,26.63,0,0,1-.44-7.29q0.29-3.42.64-7,0.36-3.25.52-6.32a11.18,11.18,0,0,0-.32-4.27q-0.49-1.2-2,.26t-4.37,7.11a58.2,58.2,0,0,0-4.06,9.94,107.27,107.27,0,0,0-3.64,17.18,2.66,2.66,0,0,1-.92,2,10.68,10.68,0,0,1-2.68,1.26q-1.18.54-2,.82a3.38,3.38,0,0,0-1.47,1.15q1.18-9.43,2-18.34t2.24-17.93a26,26,0,0,1,1.71-6.86,5.71,5.71,0,0,1,3.72-2.94,18.42,18.42,0,0,1,2.42-.42,6.1,6.1,0,0,0,2.41-.79,11.64,11.64,0,0,0-1.93,3.93,61.08,61.08,0,0,0-1.71,6.49q-0.78,3.65-1.41,7.69t-1,7.56q0.92-2.7,2.42-6.43a57.76,57.76,0,0,1,3.28-6.85q1.38-2.48,2.93-5.35t3.15-5.24a24.66,24.66,0,0,1,3.23-4,5.07,5.07,0,0,1,3.24-1.64,3.2,3.2,0,0,1,2.67,1.18,4.26,4.26,0,0,1,.73,3.12,81.08,81.08,0,0,1-1.19,8.87q-0.89,4.76-1.44,9.58,0.92-2.7,2.42-6.42a56.51,56.51,0,0,1,6.87-12.44,63.82,63.82,0,0,1,4.66-5.77,39,39,0,0,1,4.79-4.51,7.24,7.24,0,0,1,3.85-1.86q-1.22,7.19-2.08,13.62-0.4,2.77-.65,5.61t-0.45,5.47Q263,259.78,263,262a32.66,32.66,0,0,0,.16,3.82q0.66,3.65,1.7,4.47a2.14,2.14,0,0,0,2.15.43q2.11-.75,3.65-3.85a37.07,37.07,0,0,0,2.55-7,62.52,62.52,0,0,0,1.52-7.73q0.51-3.87.73-6.08,0.16-1.68,1.13-1.59C277.21,244.6,277.47,245.28,277.34,246.57Z"/><path d="M316.29,232.83q-0.32,3-.94,7.09a72.35,72.35,0,0,1-1.7,8.11,33.81,33.81,0,0,1-2.78,7.18,9.19,9.19,0,0,1-4.07,4.25,6.86,6.86,0,0,1-3.07.52,5.58,5.58,0,0,1-3.34-1.32,10.09,10.09,0,0,1-2.74-4,23.92,23.92,0,0,1-1.48-7.55q-0.55,2.7-1.62,6.39a39.78,39.78,0,0,1-2.7,6.9q-2.13,4.26-4.66,5.77a5.92,5.92,0,0,1-4.91.79,8.29,8.29,0,0,1-4.28-3.43,18.61,18.61,0,0,1-2.77-7,34.9,34.9,0,0,1-.42-9.86,44.76,44.76,0,0,1,2.92-12.11,24.11,24.11,0,0,1,4.15-7.22,27.23,27.23,0,0,1,6.06-5.52,17,17,0,0,1,6.93-2.7,10.88,10.88,0,0,1,6.87,1.21,2.16,2.16,0,0,1,1.55,2.08,1.72,1.72,0,0,1-1.63,1.58,5.21,5.21,0,0,0-5-2.51,8.59,8.59,0,0,0-5.49,3.06,34,34,0,0,0-5.49,9.26A62.61,62.61,0,0,0,282,245.67q-0.14.68-.37,2.13t-0.39,3.33q-0.15,1.87-.16,3.81a18.16,18.16,0,0,0,.32,3.58q0.58,3.05,1.88,4.09a2.78,2.78,0,0,0,2.81.51,7.2,7.2,0,0,0,3.05-2.52,19.66,19.66,0,0,0,2.73-5,70.67,70.67,0,0,0,2.63-9.37q1-4.8,1.77-9.7a39.16,39.16,0,0,1,1.47-6.65,4.78,4.78,0,0,1,3.58-3.14,18.51,18.51,0,0,1,2.42-.42,6.08,6.08,0,0,0,2.41-.79,21.67,21.67,0,0,0-1.23,4.13q-0.66,2.92-1.19,6.55T303,243.51a36.82,36.82,0,0,0,.15,6.45q1,7.15,3.47,6.28,1.82-.52,3.15-3.49a41.22,41.22,0,0,0,2.29-6.81q1-3.84,1.51-7.6t0.81-5.85c0.18-1.15.57-1.7,1.17-1.66S316.41,231.53,316.29,232.83Z"/><path d="M344.8,222.14q-0.34,4-.93,8.9a37.18,37.18,0,0,1-2.26,9.18,20.73,20.73,0,0,1-4.74,7.3,11.94,11.94,0,0,1-8.25,3.22,12.43,12.43,0,0,1-4.17,2.72q-5,1.77-8.13.18a9.36,9.36,0,0,1-4.44-4.44,10.08,10.08,0,0,1-.9-5.75q0.41-2.9,2.38-3.72,0.73-5,1.48-11t1.29-11.59a32.82,32.82,0,0,1,.62-3.91,24,24,0,0,1,1.13-3.71,13.59,13.59,0,0,1,1.72-3.11,7.46,7.46,0,0,1,6.7-3q1.83,0.23,1.94,1.25t-1.72.8a8.34,8.34,0,0,0-1.94.18,3.26,3.26,0,0,0-1.66,1,5.8,5.8,0,0,0-1.78,3.63,10.88,10.88,0,0,0,.41,4.17,18.08,18.08,0,0,0,1.73,4,16,16,0,0,0,2.29,3.13q2.48,2.76,5,5.36a14.72,14.72,0,0,1,3.62,6.36,15.05,15.05,0,0,1-.09,7.54,21.12,21.12,0,0,1-3.45,7.6l0.82-.16a8.33,8.33,0,0,0,5-3,19.16,19.16,0,0,0,3.18-5.69,18.64,18.64,0,0,0,1-3.67q0.41-2.21.81-4.61t0.74-4.83q0.33-2.43.63-4.42a1,1,0,0,1,1.08-1A0.81,0.81,0,0,1,344.8,222.14Zm-17.38,13.52a37.86,37.86,0,0,0-2.19-5.49q-1.35-2.77-2.75-5.48T320,219.51a18.24,18.24,0,0,1-1.46-4.49q-0.33,2.62-.72,5.95T317,227.65q-0.45,3.35-.86,6.43t-0.79,5.22a1.77,1.77,0,0,1,1.38,0,2.88,2.88,0,0,1,1.15.78,5.33,5.33,0,0,1,1.06,1.94,8.94,8.94,0,0,0,3.2,5,9.12,9.12,0,0,0,4.49,1.92,12.53,12.53,0,0,0,1.77-5.44A19.89,19.89,0,0,0,327.42,235.65Zm-2.35,15a9.85,9.85,0,0,1-4.1-2.05,12.16,12.16,0,0,1-3.29-4.72,7.09,7.09,0,0,0-.76,3.52,5.66,5.66,0,0,0,.89,2.88,4.4,4.4,0,0,0,2.16,1.68,4.33,4.33,0,0,0,3-.07A5.25,5.25,0,0,0,325.07,250.62Z"/><path d="M216.74,338.29a22.41,22.41,0,0,1-6.2,6.19,2.5,2.5,0,0,1-1.65.65,0.87,0.87,0,0,1-.81-0.53,1.27,1.27,0,0,1,.41-1.14,6.26,6.26,0,0,1,1.82-1.39,7.82,7.82,0,0,0,4.05-10.32,11.33,11.33,0,0,0-4.38-5,15.15,15.15,0,0,0-8.06-2.28,30.59,30.59,0,0,0-11.4,2.27q-6.53,2.43-14.29,8.8a29.88,29.88,0,0,0-7,7.9A16.42,16.42,0,0,0,166.7,352a10.93,10.93,0,0,0,3,7.45q3,3.33,9.88,4.77a59.48,59.48,0,0,0,6.92,1l7.89,0.72q4.08,0.38,8.19.86t7.9,1.28a27.63,27.63,0,0,1,11,4.51,18.15,18.15,0,0,1,7.62,16.08,36,36,0,0,1-2,9.89,54.84,54.84,0,0,1-4.69,10.1,71,71,0,0,1-6.66,9.49,61.22,61.22,0,0,1-12,10.94,78.8,78.8,0,0,1-15,8.23,73.08,73.08,0,0,1-16.25,4.67,48.13,48.13,0,0,1-15.65.14,32.47,32.47,0,0,1-13.32-5.31,26.19,26.19,0,0,1-9.19-11.83,25.09,25.09,0,0,1-1.78-9,45.79,45.79,0,0,1,.92-10.34,43,43,0,0,1,3.36-10.07,28.14,28.14,0,0,1,5.75-8.16,8.83,8.83,0,0,1,1.2-.86,2.79,2.79,0,0,1,1.15-.47c0.29,0,.41.17,0.38,0.55a5.69,5.69,0,0,1-1,2.05,43.35,43.35,0,0,0-2.82,5.31,31.65,31.65,0,0,0-1.91,5.74,40.31,40.31,0,0,0-1,11.68,44.14,44.14,0,0,0,2.12,11.33,22.39,22.39,0,0,0,7.11,10.76,25.81,25.81,0,0,0,10.88,5.11,37.8,37.8,0,0,0,13.07.33,60.76,60.76,0,0,0,13.8-3.62,72.8,72.8,0,0,0,13-6.67,56.73,56.73,0,0,0,10.76-8.87,46.68,46.68,0,0,0,8.73-13,32.7,32.7,0,0,0,3-13.08,20.32,20.32,0,0,0-3.11-11.1,18.23,18.23,0,0,0-9.57-7.26,32.56,32.56,0,0,0-7.85-1.67q-4.54-.46-9.4-0.75t-9.62-.67a49.72,49.72,0,0,1-8.63-1.4q-7.69-1.92-10.92-6.28a15,15,0,0,1-3-9.69A23,23,0,0,1,162.38,344a37.16,37.16,0,0,1,8.58-9.91,57.88,57.88,0,0,1,8.32-5.5,74.17,74.17,0,0,1,9.57-4.44,57.12,57.12,0,0,1,9.49-2.72,27.8,27.8,0,0,1,8.15-.5,14.86,14.86,0,0,1,6.23,2.05,13.09,13.09,0,0,1,4.23,4,9.94,9.94,0,0,1,1.57,5.33A11.2,11.2,0,0,1,216.74,338.29Z"/><path d="M278.76,371.46q-0.31,3.36-.87,7.63a54.75,54.75,0,0,1-1.72,8.24,27.74,27.74,0,0,1-3.09,7,9.67,9.67,0,0,1-5,4.16,9.49,9.49,0,0,1-3.2.5,5.71,5.71,0,0,1-3.34-1.13,8.59,8.59,0,0,1-2.69-3.55,18.16,18.16,0,0,1-1.26-6.75,28.36,28.36,0,0,1,.44-5.85q0.56-3.39,1.56-8a7.59,7.59,0,0,0,.09-3.29,1.23,1.23,0,0,0-1.35-1.15q-1,.11-2.63,1.93a31.46,31.46,0,0,0-3.78,6,60.5,60.5,0,0,0-4.13,10.09,103.48,103.48,0,0,0-3.67,17.44,2.45,2.45,0,0,1-.94,2,12.61,12.61,0,0,1-2.59,1.16c-0.79.36-1.46,0.64-2,.84a3.45,3.45,0,0,0-1.53,1.17q0.9-8.08,1.92-17.07T241,374.59q1.07-9.2,2.34-18.53T246,337.85a28.65,28.65,0,0,1,1.66-6.65,5.29,5.29,0,0,1,3.77-3.14,18.38,18.38,0,0,1,2.42-.42,6.08,6.08,0,0,0,2.41-.79,29.22,29.22,0,0,0-1.68,5.35q-0.89,3.69-1.85,8.6t-1.94,10.82q-1,5.91-1.91,12.13t-1.76,12.38q-0.82,6.17-1.4,11.63,1.2-3.68,2.6-7a52.62,52.62,0,0,1,3-6,58.24,58.24,0,0,1,3.6-5.59,64,64,0,0,1,4.66-5.77,40.29,40.29,0,0,1,4.73-4.49,7.36,7.36,0,0,1,3.91-1.88q-1.22,7.19-2.07,13.62-0.4,2.77-.7,5.63t-0.5,5.49q-0.2,2.64-.21,4.89a20,20,0,0,0,.27,3.78q0.55,3.68,1.57,4.64a2.27,2.27,0,0,0,2.18.67q1.93-.56,3.39-3.7a37.93,37.93,0,0,0,2.41-7.17q1-4,1.5-8t0.81-6c0.15-1.22.56-1.78,1.22-1.68S278.93,370.07,278.76,371.46Z"/><path d="M316.17,357.63q-0.12,1.79-.44,5.66a49.16,49.16,0,0,1-1.37,8,30.08,30.08,0,0,1-3.1,7.69,10.25,10.25,0,0,1-5.51,4.78,10.8,10.8,0,0,1-4.57.71,9.38,9.38,0,0,1-3.55-1,23.61,23.61,0,0,1-3.81,4.45,12,12,0,0,1-4.58,2.63,7.93,7.93,0,0,1-5.71,0,9.07,9.07,0,0,1-4.06-3.7,18.86,18.86,0,0,1-2.33-6.43,32.3,32.3,0,0,1-.46-8,43.83,43.83,0,0,1,1.56-8.69,38.73,38.73,0,0,1,3.16-7.87,28,28,0,0,1,4.41-6.12,12.79,12.79,0,0,1,5.41-3.47,7.44,7.44,0,0,1,5.64,0A9.23,9.23,0,0,1,301,350a19.31,19.31,0,0,1,2.35,6.49,32.47,32.47,0,0,1,.46,8,41.56,41.56,0,0,1-1.37,7.81,40.93,40.93,0,0,1-3.34,8.62q2.43,2.27,6.21.94a7.8,7.8,0,0,0,4.28-4,29.31,29.31,0,0,0,2.51-6.89,63.46,63.46,0,0,0,1.32-7.6q0.42-3.78.71-6.13a1,1,0,0,1,1.14-1Q316.29,356.21,316.17,357.63Zm-21.35-8.73a6.28,6.28,0,0,0-3.72,1.88,15.8,15.8,0,0,0-3.17,4.5,37,37,0,0,0-2.39,6.35,42.36,42.36,0,0,0-1.38,7.43,49.46,49.46,0,0,0-.32,7.43,28.76,28.76,0,0,0,.78,5.92,10.38,10.38,0,0,0,1.77,3.94,3.2,3.2,0,0,0,2.84,1.31,5.87,5.87,0,0,0,3.44-1.59,15.4,15.4,0,0,0,3.14-3.86,11.2,11.2,0,0,1-2.32-2.31,9.69,9.69,0,0,1-1.39-2.51,7.91,7.91,0,0,1-.23-3.67,3.31,3.31,0,0,1,2.44-2.49,3.35,3.35,0,0,1,2.75.16,3.5,3.5,0,0,1,1.77,2,3.36,3.36,0,0,1,.16.63,6,6,0,0,1,0,.67,50.08,50.08,0,0,0,1.33-7.23,43.48,43.48,0,0,0,.24-7.47,26.13,26.13,0,0,0-1-5.92,10.13,10.13,0,0,0-2-3.86A3.53,3.53,0,0,0,294.82,348.9Z"/><path d="M335.8,330.3a7,7,0,0,1,6.64,2.85,18.07,18.07,0,0,1,2.94,8,37.5,37.5,0,0,1-.1,10.54,51.72,51.72,0,0,1-2.5,10.46,28.17,28.17,0,0,1-3.54,6.63,22.82,22.82,0,0,1-5,5.07,18.56,18.56,0,0,1-6.09,3,14.82,14.82,0,0,1-6.94.2L320,407.09a14.88,14.88,0,0,1-1.48,5.9,6.21,6.21,0,0,1-3.93,2.51,13.81,13.81,0,0,1-2.44.36,5.52,5.52,0,0,0-2.43.73,27.64,27.64,0,0,0,1.2-4.74q0.77-3.84,1.59-9.32t1.67-11.92q0.86-6.43,1.4-12.51T316.3,367a52.1,52.1,0,0,0-.17-7.76,4.3,4.3,0,0,1-1.36,2.54q-1,.79-0.85-0.64,0.13-1,.25-2.84t0.21-3a29.74,29.74,0,0,0-.06-4.61,27.31,27.31,0,0,0-.79-4.73,13.14,13.14,0,0,0-1.44-3.56,2.07,2.07,0,0,0-1.94-1.25q1.15-.65,2.18-1.27A10.49,10.49,0,0,1,314,339a6.21,6.21,0,0,0,1.22-.62l1.94-.87a2.12,2.12,0,0,1,1.38-.17,2.08,2.08,0,0,1,1.16,1.16,16.52,16.52,0,0,1,1.14,3,36.23,36.23,0,0,1,1.28,7,60.07,60.07,0,0,1,.32,7.46q0.52-2.43,1.5-6.73a60.85,60.85,0,0,1,2.59-8.42,32.65,32.65,0,0,1,3.83-7.23A7.22,7.22,0,0,1,335.8,330.3Zm3.12,18.42a24.24,24.24,0,0,0,0-9.87q-1-3.77-2.94-4.6t-4.26,1.57q-2.35,2.39-4.14,8.66a121.14,121.14,0,0,0-3.19,13.64q-1.5,8.16-2.8,16.88a5.05,5.05,0,0,0,5.49-.75,20.19,20.19,0,0,0,5.17-6.08,48.89,48.89,0,0,0,4.17-9.29A62,62,0,0,0,338.93,348.72Z"/><path d="M254.87,135.72a44.74,44.74,0,0,0-4.51-14.64l-5.69-11.22L231.8,84.5a1.47,1.47,0,0,0-2-.53,4.91,4.91,0,0,1-6.33-1.1l0,0a2.83,2.83,0,0,0-3.22-.73l-52,22.14a1.85,1.85,0,0,0-1,2.56l12.05,23.9a7.35,7.35,0,0,1,.57,1.46,8.06,8.06,0,0,1,.36,2.26,10.45,10.45,0,0,1-.07,1.49,5.27,5.27,0,0,1-.14.73,6.71,6.71,0,0,1-.46,1.43,9.24,9.24,0,0,1-2.82,3.68L148.3,164.3a32.43,32.43,0,0,0-4.93,4.81c-0.18.23-.36,0.43-0.54,0.66a36.59,36.59,0,0,0-2.36,3.39c-0.29.46-.54,0.93-0.79,1.43a31.12,31.12,0,0,0-1.36,2.92c-0.21.5-.39,1-0.57,1.49a30.6,30.6,0,0,0-1.39,6.14,30.25,30.25,0,0,0,.07,7.83c0.14,1,.36,2.09.61,3.12a31.09,31.09,0,0,0,8,14.27h0c0.43,0.43.82,0.83,1.29,1.23l0.43,0.4a9.52,9.52,0,0,0,.89.76,6.11,6.11,0,0,0,.54.43l0.82,0.66a6.84,6.84,0,0,0,.61.43c0.29,0.2.54,0.4,0.82,0.56a7.26,7.26,0,0,1,.64.43l0.82,0.5,0.68,0.4,0.82,0.46c0.21,0.13.46,0.23,0.72,0.37s0.57,0.27.86,0.43,0.46,0.23.72,0.33,0.57,0.27.86,0.37l0.72,0.3c0.29,0.1.57,0.23,0.89,0.33s0.5,0.17.75,0.27l0.89,0.3c0.25,0.07.5,0.17,0.75,0.23s0.64,0.17.93,0.27l0.72,0.2c0.32,0.07.68,0.13,1,.23l0.68,0.13,1.14,0.2,0.57,0.1,1.72,0.2h0.14c0.54,0,1,.1,1.57.1a3.31,3.31,0,0,1,.57,0c0.39,0,.75,0,1.14,0h1.57c0.5,0,1,0,1.47-.1h0.11c0.54,0,1.07-.1,1.61-0.17a3,3,0,0,1,.54-0.07,9.57,9.57,0,0,0,1-.17,4.43,4.43,0,0,0,.64-0.13l0.93-.2a5.06,5.06,0,0,0,.68-0.17l0.89-.2,0.68-.2a8.49,8.49,0,0,0,.86-0.27,6,6,0,0,0,.72-0.23l0.82-.3c0.25-.1.46-0.17,0.68-0.27a8.52,8.52,0,0,0,.82-0.33l0.43-.2,0.25-.1,0.82-.37c0.21-.1.43-0.2,0.68-0.3l0.82-.4c0.21-.1.43-0.23,0.64-0.33l0.82-.46,0.61-.37c0.29-.17.57-0.37,0.82-0.53s0.36-.23.54-0.37l0.89-.63,0.46-.33c0.43-.33.89-0.66,1.32-1l44.16-36.48a47.18,47.18,0,0,0,3.61-3.32,45.56,45.56,0,0,0,13-26.13,32,32,0,0,0,.32-3.72c0-.63,0-1.23,0-1.86A37.08,37.08,0,0,0,254.87,135.72ZM175,114.21a0.86,0.86,0,0,1-.39-0.1,0.62,0.62,0,0,1-.21-0.9l3.75-5.48a5.36,5.36,0,0,1,5.79-2l2.11,0.56a3.86,3.86,0,0,0,4.33-1.66l1.36-2.29a5.32,5.32,0,0,1,5.9-2.29l1.75,0.43a3.85,3.85,0,0,0,4.26-1.63L205,96.65a5.29,5.29,0,0,1,5.79-2.26L213,94.92a3.86,3.86,0,0,0,4.08-1.46l2.25-3.22a5.35,5.35,0,0,1,5.44-2.06l6.19,1.26a0.64,0.64,0,0,1,.54.76,0.71,0.71,0,0,1-.86.5l-6.19-1.26a3.91,3.91,0,0,0-3.93,1.49l-2.25,3.22a5.32,5.32,0,0,1-5.61,2l-2.22-.53a3.83,3.83,0,0,0-4.18,1.63l-1.36,2.19a5.39,5.39,0,0,1-5.86,2.26l-1.75-.43A3.83,3.83,0,0,0,193,103l-1.36,2.29a5.35,5.35,0,0,1-6,2.29l-2.11-.56a3.91,3.91,0,0,0-4.22,1.46l-3.75,5.48A0.72,0.72,0,0,1,175,114.21Zm1.43,2.46a0.89,0.89,0,0,1-.29-0.07,0.47,0.47,0,0,1-.18-0.66l3.65-5.31a5.46,5.46,0,0,1,5.9-2.06l1.68,0.46a4.38,4.38,0,0,0,4.86-1.86l1.14-2a5.46,5.46,0,0,1,6-2.36l1.32,0.33a4.33,4.33,0,0,0,4.76-1.83l1.14-1.86a5.39,5.39,0,0,1,5.9-2.29l1.82,0.43A4.32,4.32,0,0,0,218.71,96l2-2.92a5.45,5.45,0,0,1,5.51-2.12l6,1.23a0.49,0.49,0,0,1,.39.6,0.54,0.54,0,0,1-.64.37l-6-1.23a4.32,4.32,0,0,0-4.4,1.69l-2,2.92a5.43,5.43,0,0,1-5.72,2.06L212,98.14a4.32,4.32,0,0,0-4.68,1.83l-1.14,1.86a5.45,5.45,0,0,1-6,2.29l-1.32-.33a4.37,4.37,0,0,0-4.79,1.86l-1.14,2a5.45,5.45,0,0,1-6.08,2.32l-1.68-.46a4.34,4.34,0,0,0-4.72,1.63l-3.65,5.31A0.56,0.56,0,0,1,176.41,116.67Zm-6.69,40.14c3-.63,5.65,1.83,5,4.61a3.91,3.91,0,0,1-3.08,2.85c-3,.63-5.65-1.83-5-4.61A3.9,3.9,0,0,1,169.72,156.8Zm18.34,56.7a33.51,33.51,0,0,1-40.66-5,27.94,27.94,0,0,1-8.12-21.58,28.28,28.28,0,0,1,8.94-18.66,37.2,37.2,0,0,1,7.76-.8c19.42,0,35.19,14.61,35.19,32.67A30.33,30.33,0,0,1,188.07,213.5Zm-5.79-66.3a2.46,2.46,0,0,1,3-2.79,2.43,2.43,0,0,1,2,1.86,2.46,2.46,0,0,1-3,2.79A2.43,2.43,0,0,1,182.27,147.21Zm6.22-20.08c-3,.63-5.65-1.83-5-4.61a3.91,3.91,0,0,1,3.08-2.85c3-.63,5.65,1.83,5,4.61A3.91,3.91,0,0,1,188.5,127.12Zm6.83,42.73a2.33,2.33,0,0,1-2.82-2.62,2.29,2.29,0,0,1,1.86-1.73,2.34,2.34,0,0,1,2.82,2.62A2.29,2.29,0,0,1,195.33,169.85Zm5.51,25.89a3.86,3.86,0,1,1,4.15-3.85A4,4,0,0,1,200.83,195.74ZM205,150.2a3.86,3.86,0,1,1,4.15-3.85A4,4,0,0,1,205,150.2Zm6-27.09a2.28,2.28,0,1,1,1.93-1.79A2.41,2.41,0,0,1,211,123.11Zm2.29-22.54a4.22,4.22,0,0,0-4.54,1.76l-1.39,2.26a4.87,4.87,0,0,1-5.36,2.06l-1.82-.46A4.2,4.2,0,0,0,195.5,108l-1.43,2.39a4.88,4.88,0,0,1-5.47,2.09l-2.18-.6a4.18,4.18,0,0,0-4.54,1.59L178.09,119a0.37,0.37,0,0,1-.29.17,0.28,0.28,0,0,1-.18-0.07,0.31,0.31,0,0,1-.11-0.46l3.79-5.51a4.93,4.93,0,0,1,5.33-1.86l2.18,0.6a4.14,4.14,0,0,0,4.65-1.79l1.43-2.39a4.89,4.89,0,0,1,5.4-2.12l1.82,0.46a4.13,4.13,0,0,0,4.58-1.76l1.39-2.26a4.94,4.94,0,0,1,5.33-2.09l2.32,0.56a4.18,4.18,0,0,0,4.4-1.59l2.29-3.29a4.9,4.9,0,0,1,5-1.89l6.26,1.26a0.35,0.35,0,0,1,.29.4,0.37,0.37,0,0,1-.43.27l-6.26-1.26A4.17,4.17,0,0,0,223,96l-2.29,3.29a4.88,4.88,0,0,1-5.19,1.86Zm21.56,2.32c0.68,2.79-2,5.25-5,4.61a3.9,3.9,0,0,1-3.08-2.85c-0.68-2.79,2-5.25,5-4.61A4,4,0,0,1,234.8,102.89ZM220.39,174.3a2.44,2.44,0,0,1-3-2.76,2.4,2.4,0,0,1,2-1.83A2.35,2.35,0,1,1,220.39,174.3Zm30.93-24.93A42.9,42.9,0,0,1,238.67,172c-12.8-4.88-21.85-16.57-21.85-30.21,0-14.71,10.48-27.12,24.85-31.24l5.65,11.12A42.19,42.19,0,0,1,251.33,149.37Z"/><path d="M160,101a4.06,4.06,0,0,0,3.65,2.16,3.78,3.78,0,0,0,.61-0.07l55-23.4a1,1,0,0,0,.43-1.49l0,0a2.53,2.53,0,0,0-3-.73l-50,21.68-2.57,1.13a0.34,0.34,0,0,1-.18,0,0.55,0.55,0,0,1-.25.07,1.07,1.07,0,0,1-.93-0.53L148.23,71.05a1,1,0,0,1,0-.73,0.84,0.84,0,0,1,.54-0.53l16.49-7.14a1.34,1.34,0,0,0,.79-1.59h0a1.55,1.55,0,0,0-2.15-.9l-16.41,7.1a3.62,3.62,0,0,0-1.93,5Z"/><path d="M186.67,207.4a0.63,0.63,0,0,1,.5.8v0.07a0.55,0.55,0,0,1-.11.2,0.65,0.65,0,0,1-.75.27,0.63,0.63,0,0,1-.5-0.8v-0.07a0.55,0.55,0,0,1,.11-0.2A0.7,0.7,0,0,1,186.67,207.4Zm-40.09-35.85a0.07,0.07,0,0,0-.07,0,0.55,0.55,0,0,0-.39.27,0.56,0.56,0,0,0-.07.53,0.7,0.7,0,0,0,.86.46l0.07,0a0.55,0.55,0,0,0,.39-0.27,0.56,0.56,0,0,0,.07-0.53A0.68,0.68,0,0,0,146.59,171.54Zm3.5-.73H150a0.63,0.63,0,0,0-.46.3,0.54,0.54,0,0,0-.11.46,0.7,0.7,0,0,0,.82.53h0.07a0.63,0.63,0,0,0,.46-0.3,0.54,0.54,0,0,0,.11-0.46,0.72,0.72,0,0,0-.82-0.53h0Zm34.79,40s0,0.1-.07.13l0,0.07a0.61,0.61,0,0,0,.43.83,0.69,0.69,0,0,0,.82-0.27,0.47,0.47,0,0,0,.07-0.13,0.06,0.06,0,0,1,0-.07,0.61,0.61,0,0,0-.43-0.83A0.76,0.76,0,0,0,184.88,210.78Zm2.86-5.54a0.36,0.36,0,0,0,.11-0.27v-0.07h0a0.66,0.66,0,0,0-.61-0.73,0.73,0.73,0,0,0-.68.3,0.36,0.36,0,0,0-.11.27v0.07a0.66,0.66,0,0,0,.61.73A0.73,0.73,0,0,0,187.75,205.24Zm-20-32.57h0a0.75,0.75,0,0,0-.86.23s0,0.07-.07.1a0.66,0.66,0,0,0,.39.86l0.07,0a0.72,0.72,0,0,0,.86-0.27s0-.07.07-0.1a0.66,0.66,0,0,0-.39-0.86h-0.07Zm-14.05-2.22h-0.07a0.62,0.62,0,0,0-.54.3,0.67,0.67,0,0,0-.11.4,0.72,0.72,0,0,0,.75.63h0.07a0.74,0.74,0,0,0,.57-0.3,0.67,0.67,0,0,0,.11-0.4,0.76,0.76,0,0,0-.79-0.63h0Zm7.15,0.4h0a0.72,0.72,0,0,0-.72.3c0,0.07-.07.17-0.11,0.23a0.65,0.65,0,0,0,.57.76h0.07a0.72,0.72,0,0,0,.72-0.3c0-.07.07-0.17,0.11-0.23a0.66,0.66,0,0,0-.61-0.76h0Zm23.57,42.73a0.71,0.71,0,0,0-.89.23s0,0,0,.07l0,0.07a0.64,0.64,0,0,0,.32.9,0.71,0.71,0,0,0,.89-0.23s0,0,0-.07,0,0,0-.07A0.64,0.64,0,0,0,184.38,213.57Zm-27.18-43.12a0.79,0.79,0,0,0-.64.3,0.53,0.53,0,0,0-.11.33,0.69,0.69,0,0,0,.68.7h0.07a0.79,0.79,0,0,0,.64-0.3,0.53,0.53,0,0,0,.11-0.33,0.68,0.68,0,0,0-.64-0.7A0.07,0.07,0,0,1,157.21,170.45Zm7.15,1.13h0a0.76,0.76,0,0,0-.79.27,0.34,0.34,0,0,0-.07.17,0.64,0.64,0,0,0,.5.8l0.07,0a0.76,0.76,0,0,0,.79-0.27,0.34,0.34,0,0,0,.07-0.17,0.71,0.71,0,0,0-.54-0.83h0Zm14.09,9.56a0.73,0.73,0,0,0,1,0,0.46,0.46,0,0,0,.11-0.13,0.62,0.62,0,0,0-.07-0.8l0,0a0.73,0.73,0,0,0-1,0,0.46,0.46,0,0,0-.11.13,0.62,0.62,0,0,0,.07.8ZM176,178.91a0.77,0.77,0,0,0,1-.07l0.07-.07a0.64,0.64,0,0,0-.14-0.86l0,0h0a0.77,0.77,0,0,0-1,.07l-0.07.07a0.64,0.64,0,0,0,.14.86Zm11.48,22a0.72,0.72,0,0,0-.61.3,0.53,0.53,0,0,0-.11.33v0.07a0.66,0.66,0,0,0,.68.66A0.72,0.72,0,0,0,188,202a0.53,0.53,0,0,0,.11-0.33v-0.07A0.71,0.71,0,0,0,187.46,200.89ZM173.26,177a0.72,0.72,0,0,0,1-.17v0a0.64,0.64,0,0,0-.18-0.9h0l0,0a0.72,0.72,0,0,0-1,.17v0a0.64,0.64,0,0,0,.18.9ZM170,174.3l0,0a0.63,0.63,0,0,0,.29.9l0.07,0a0.73,0.73,0,0,0,.93-0.23l0,0a0.63,0.63,0,0,0-.29-0.9H171A0.74,0.74,0,0,0,170,174.3Zm10.62,9.33a0.73,0.73,0,0,0,1,.13,0.42,0.42,0,0,0,.18-0.17,0.61,0.61,0,0,0,0-.73s0,0,0-.07a0.73,0.73,0,0,0-1-.13,0.42,0.42,0,0,0-.18.17,0.61,0.61,0,0,0,0,.73Zm6.08,14.31a0.83,0.83,0,0,0-.11.4v0.07a0.7,0.7,0,0,0,.75.6,0.78,0.78,0,0,0,.54-0.3,0.83,0.83,0,0,0,.11-0.4v-0.07a0.7,0.7,0,0,0-.75-0.6A0.71,0.71,0,0,0,186.74,197.93Zm-4.22-11.65a0.73,0.73,0,0,0,1,.23,1.53,1.53,0,0,0,.25-0.2,0.69,0.69,0,0,0,0-.7s0,0,0-.07a0.73,0.73,0,0,0-1-.23,1.53,1.53,0,0,0-.25.2,0.69,0.69,0,0,0,0,.7Zm3.72,8.4a0.59,0.59,0,0,0-.11.5v0.07a0.71,0.71,0,0,0,.82.53,0.7,0.7,0,0,0,.46-0.3,0.54,0.54,0,0,0,.11-0.46h0v0h0a0.67,0.67,0,0,0-.82-0.5A0.44,0.44,0,0,0,186.24,194.68Zm-1-2.59,0,0.07a0.74,0.74,0,0,0,.89.43,0.64,0.64,0,0,0,.39-0.27,0.63,0.63,0,0,0,.07-0.56v0h0a0.74,0.74,0,0,0-.89-0.43,0.64,0.64,0,0,0-.39.27A0.48,0.48,0,0,0,185.28,192.09Zm-1.18-3a0.7,0.7,0,0,0,.93.33,0.77,0.77,0,0,0,.32-0.23,0.76,0.76,0,0,0,.07-0.63h0a0.7,0.7,0,0,0-.93-0.33,0.77,0.77,0,0,0-.32.23,0.76,0.76,0,0,0-.07.63h0Z"/><path d="M221.79,146.38a0.69,0.69,0,0,1-.79-0.56h0v0h0a0.61,0.61,0,0,1,.11-0.43,0.7,0.7,0,0,1,.5-0.3,0.69,0.69,0,0,1,.79.56v0.07a0.61,0.61,0,0,1-.11.43A1,1,0,0,1,221.79,146.38Zm1.14,2.92a0.62,0.62,0,0,0,.11-0.5v-0.07a0.73,0.73,0,0,0-.86-0.5,0.72,0.72,0,0,0-.43.27,0.62,0.62,0,0,0-.11.5v0h0v0.07a0.68,0.68,0,0,0,.86.46A0.72,0.72,0,0,0,222.93,149.3Zm1.11,2.52,0-.07a0.72,0.72,0,0,0-.89-0.4,0.71,0.71,0,0,0-.36.27,0.63,0.63,0,0,0-.07.56v0.07a0.72,0.72,0,0,0,.89.4,0.71,0.71,0,0,0,.36-0.27A0.53,0.53,0,0,0,224,151.82Zm-2-9a0.63,0.63,0,0,0,.11-0.37v-0.07a0.65,0.65,0,0,0-.72-0.63,0.69,0.69,0,0,0-.57.3,0.63,0.63,0,0,0-.11.37v0.07a0.65,0.65,0,0,0,.72.63A0.7,0.7,0,0,0,222,142.79Zm4.36-15.6s0,0,0,0l0-.07a0.63,0.63,0,0,0-.25-0.9,0.77,0.77,0,0,0-1,.2v0s0,0,0,.07h0a0.63,0.63,0,0,0,.25.9A0.8,0.8,0,0,0,226.4,127.19Zm-1,27.52a0.71,0.71,0,0,0-.93-0.3,1,1,0,0,0-.29.23,0.58,0.58,0,0,0,0,.63s0,0,0,.07h0a0.71,0.71,0,0,0,.93.3,1,1,0,0,0,.29-0.23,0.58,0.58,0,0,0,0-.63Zm-2.65-21.31a0.76,0.76,0,0,0,.82-0.27,0.24,0.24,0,0,0,.07-0.17l0-.07a0.65,0.65,0,0,0-.46-0.83,0.76,0.76,0,0,0-.82.27,0.24,0.24,0,0,0-.07.17,0.06,0.06,0,0,1,0,.07A0.66,0.66,0,0,0,222.72,133.4Zm-1.22,6.44a0.64,0.64,0,0,0,.64-0.3,0.51,0.51,0,0,0,.11-0.3v-0.07a0.66,0.66,0,0,0-.64-0.7,0.64,0.64,0,0,0-.64.3,0.51,0.51,0,0,0-.11.3v0.07A0.68,0.68,0,0,0,221.5,139.84Zm2.43-9.49a0.77,0.77,0,0,0,.89-0.23,0.12,0.12,0,0,0,0-.1l0-.07a0.64,0.64,0,0,0-.36-0.86,0.77,0.77,0,0,0-.89.23,0.12,0.12,0,0,0,0,.1s0,0,0,.07A0.63,0.63,0,0,0,223.93,130.34Zm-2,6.24a0.75,0.75,0,0,0,.75-0.3,1.56,1.56,0,0,0,.11-0.23V136a0.65,0.65,0,0,0-.54-0.76,0.75,0.75,0,0,0-.75.3,1.56,1.56,0,0,0-.11.23v0.07h0A0.61,0.61,0,0,0,221.93,136.58Zm19.85-21.74,0.07,0a0.62,0.62,0,0,0,.32-0.27,0.7,0.7,0,0,0,.07-0.6,0.75,0.75,0,0,0-.93-0.37,0.07,0.07,0,0,0-.07,0,0.62,0.62,0,0,0-.32.27,0.7,0.7,0,0,0-.07.6A0.76,0.76,0,0,0,241.78,114.84Zm-6,3a0.5,0.5,0,0,0,.18-0.2,0.67,0.67,0,0,0,0-.73,0.72,0.72,0,0,0-1-.17l0,0h0a0.81,0.81,0,0,0-.18.17,0.67,0.67,0,0,0,0,.73,0.72,0.72,0,0,0,1,.17h0Zm-1.86,46.78a0.77,0.77,0,0,0-1,.1s0,0,0,.07a0.63,0.63,0,0,0,.14.86h0l0,0a0.77,0.77,0,0,0,1-.1s0,0,0-.07a0.63,0.63,0,0,0-.14-0.86Zm2.86,1.89-0.07,0a0.73,0.73,0,0,0-1,.2h0a0.62,0.62,0,0,0,.21.9h0a0,0,0,0,1,0,0,0.73,0.73,0,0,0,1-.2h0A0.62,0.62,0,0,0,236.77,166.5Zm3.29,2.52s0,0,0-.07a0.6,0.6,0,0,0-.32-0.86l-0.07,0a0.75,0.75,0,0,0-.89.23s0,0,0,.07a0.6,0.6,0,0,0,.32.86,0.07,0.07,0,0,1,.07,0h0A0.75,0.75,0,0,0,240.06,169ZM239,115.94a0.64,0.64,0,0,0,0-.66,0.73,0.73,0,0,0-1-.27,0,0,0,0,0,0,0h0a0.81,0.81,0,0,0-.25.23,0.63,0.63,0,0,0,0,.66,0.73,0.73,0,0,0,1,.27l0.07,0A0.81,0.81,0,0,0,239,115.94Zm-8.4,6a0.18,0.18,0,0,0,.07-0.1,0.62,0.62,0,0,0-.11-0.83,0.77,0.77,0,0,0-1,0l0,0,0,0s0,0.07-.07.1a0.62,0.62,0,0,0,.11.83,0.77,0.77,0,0,0,1,0Zm-2.25,2.52,0-.07,0,0a0.62,0.62,0,0,0-.18-0.9,0.73,0.73,0,0,0-1,.13l0,0h0a0,0,0,0,1,0,0,0.62,0.62,0,0,0,.18.9A0.77,0.77,0,0,0,228.33,124.5ZM229,160.09a0.77,0.77,0,0,0-1-.1,0.34,0.34,0,0,0-.14.17,0.67,0.67,0,0,0,0,.76h0l0,0h0a0.77,0.77,0,0,0,1,.1,0.34,0.34,0,0,0,.14-0.17,0.61,0.61,0,0,0,0-.76Zm2.29,2.39a0.73,0.73,0,0,0-1,0l-0.11.1a0.62,0.62,0,0,0,.11.83l0,0,0,0a0.73,0.73,0,0,0,1,0l0.11-.1a0.62,0.62,0,0,0-.11-0.83Zm-4.29-5a0.73,0.73,0,0,0-1-.2l-0.21.2a0.62,0.62,0,0,0,0,.7h0v0.07a0.73,0.73,0,0,0,1,.2l0.21-.2a0.62,0.62,0,0,0,0-.7V157.5Zm6-37.75,0.14-.13a0.62,0.62,0,0,0-.07-0.8,0.77,0.77,0,0,0-1-.07,0,0,0,0,0,0,0l0,0-0.14.13a0.62,0.62,0,0,0,.07.8,0.77,0.77,0,0,0,1,.07Z"/><path d="M164.68,94.22a0.66,0.66,0,0,1-.43-0.13l-0.07,0a0.64,0.64,0,0,1-.11-0.93,0.77,0.77,0,0,1,1-.1l0,0A0.65,0.65,0,0,1,164.68,94.22Zm3.36-.4a0.74,0.74,0,0,1-.68-0.4,0.64,0.64,0,0,1,.32-0.86l0.07,0a0.73,0.73,0,0,1,.93.33,0.64,0.64,0,0,1-.36.86A0.6,0.6,0,0,1,168,93.83Zm3.29-1.36a0.68,0.68,0,0,1-.64-0.37,0.64,0.64,0,0,1,.32-0.86l0.07,0a0.73,0.73,0,0,1,.93.33,0.64,0.64,0,0,1-.36.86A0.57,0.57,0,0,1,171.33,92.47ZM163,91.3a0.72,0.72,0,0,1-.64-0.37l0-.07a0.62,0.62,0,0,1,.36-0.86,0.7,0.7,0,0,1,.93.33l0,0.07a0.62,0.62,0,0,1-.36.86A0.75,0.75,0,0,1,163,91.3Zm11.62-.17a0.68,0.68,0,0,1-.64-0.37,0.64,0.64,0,0,1,.32-0.86l0.07,0a0.73,0.73,0,0,1,.93.33,0.64,0.64,0,0,1-.36.86A1.11,1.11,0,0,1,174.62,91.14Zm3.29-1.36a0.74,0.74,0,0,1-.68-0.4,0.64,0.64,0,0,1,.32-0.86l0.07,0a0.73,0.73,0,0,1,.93.33,0.64,0.64,0,0,1-.36.86A0.42,0.42,0,0,1,177.91,89.78Zm3.29-1.36a0.74,0.74,0,0,1-.68-0.4,0.64,0.64,0,0,1,.32-0.86l0.07,0a0.73,0.73,0,0,1,.93.33,0.64,0.64,0,0,1-.36.86A0.31,0.31,0,0,1,181.2,88.41Zm-19.7-.13a0.72,0.72,0,0,1-.64-0.37l0-.07a0.62,0.62,0,0,1,.36-0.86,0.7,0.7,0,0,1,.93.33l0,0.07a0.62,0.62,0,0,1-.36.86C161.68,88.25,161.6,88.28,161.5,88.28Zm23-1.16a0.66,0.66,0,0,1-.64-0.4,0.64,0.64,0,0,1,.36-0.86l0.07,0a0.73,0.73,0,0,1,.93.33,0.64,0.64,0,0,1-.36.86l-0.07,0A0.72,0.72,0,0,1,184.46,87.12Zm3.29-1.36a0.66,0.66,0,0,1-.64-0.4,0.64,0.64,0,0,1,.36-0.86l0.07,0a0.73,0.73,0,0,1,.93.33,0.64,0.64,0,0,1-.36.86l-0.07,0A0.41,0.41,0,0,1,187.75,85.76ZM160,85.23a0.72,0.72,0,0,1-.64-0.37l0-.07a0.62,0.62,0,0,1,.36-0.86,0.7,0.7,0,0,1,.93.33l0,0.07a0.62,0.62,0,0,1-.36.86A1,1,0,0,1,160,85.23Zm31.08-.8a0.66,0.66,0,0,1-.64-0.4,0.64,0.64,0,0,1,.36-0.86l0.07,0a0.73,0.73,0,0,1,.93.33,0.64,0.64,0,0,1-.36.86l-0.07,0A1.18,1.18,0,0,1,191.07,84.43Zm3.29-1.36a0.66,0.66,0,0,1-.64-0.4,0.64,0.64,0,0,1,.36-0.86l0.07,0a0.73,0.73,0,0,1,.93.33,0.64,0.64,0,0,1-.36.86l-0.07,0A0.51,0.51,0,0,1,194.36,83.07Zm-35.87-.86a0.72,0.72,0,0,1-.64-0.37l0-.07a0.62,0.62,0,0,1,.36-0.86,0.7,0.7,0,0,1,.93.33l0,0.07a0.62,0.62,0,0,1-.36.86C158.67,82.17,158.57,82.21,158.49,82.21Zm39.16-.5a0.66,0.66,0,0,1-.64-0.4,0.64,0.64,0,0,1,.36-0.86l0.07,0a0.73,0.73,0,0,1,.93.33,0.64,0.64,0,0,1-.36.86l-0.07,0A0.46,0.46,0,0,1,197.65,81.71ZM201,80.35a0.68,0.68,0,0,1-.64-0.37,0.64,0.64,0,0,1,.32-0.86l0.07,0a0.73,0.73,0,0,1,.93.33,0.64,0.64,0,0,1-.36.86A0.7,0.7,0,0,1,201,80.35ZM157,79.19a0.72,0.72,0,0,1-.64-0.37l0-.07a0.62,0.62,0,0,1,.36-0.86,0.7,0.7,0,0,1,.93.33l0,0.07a0.62,0.62,0,0,1-.36.86C157.17,79.15,157.06,79.19,157,79.19ZM204.23,79a0.66,0.66,0,0,1-.64-0.4,0.64,0.64,0,0,1,.36-0.86l0.07,0a0.73,0.73,0,0,1,.93.33,0.64,0.64,0,0,1-.36.86l-0.07,0A0.41,0.41,0,0,1,204.23,79Zm3.36-1.36a0.78,0.78,0,0,1-.68-0.37,0.64,0.64,0,0,1,.32-0.86l0.07,0a0.73,0.73,0,0,1,.93.33,0.64,0.64,0,0,1-.36.86A0.41,0.41,0,0,1,207.59,77.66Zm3.25-1.33a0.66,0.66,0,0,1-.64-0.4,0.64,0.64,0,0,1,.36-0.86l0.07,0a0.73,0.73,0,0,1,.93.33,0.64,0.64,0,0,1-.36.86l-0.07,0A0.51,0.51,0,0,1,210.85,76.33Zm-55.39-.2a0.72,0.72,0,0,1-.64-0.37l0-.07a0.62,0.62,0,0,1,.36-0.86,0.7,0.7,0,0,1,.93.33l0,0.07a0.62,0.62,0,0,1-.36.86C155.67,76.1,155.56,76.13,155.45,76.13ZM214.17,75a0.78,0.78,0,0,1-.68-0.37,0.64,0.64,0,0,1,.32-0.86l0.07,0a0.73,0.73,0,0,1,.93.33,0.64,0.64,0,0,1-.36.86A0.72,0.72,0,0,1,214.17,75Zm-59.86-2h-0.14a0.66,0.66,0,0,1-.54-0.8,0.32,0.32,0,0,0,0-.1,0.7,0.7,0,0,1,.86-0.46,0.63,0.63,0,0,1,.5.8l-0.68-.17,0.68,0.2A0.71,0.71,0,0,1,154.31,73Zm2.79-1.89a0.72,0.72,0,0,1-.64-0.37,0.62,0.62,0,0,1,.36-0.86l0.07,0a0.7,0.7,0,0,1,.93.33,0.64,0.64,0,0,1-.36.86l-0.07,0C157.28,71.09,157.17,71.12,157.1,71.12Zm3.25-1.39a0.66,0.66,0,0,1-.64-0.4,0.62,0.62,0,0,1,.36-0.86l0.07,0a0.7,0.7,0,0,1,.93.33,0.62,0.62,0,0,1-.36.86l-0.07,0A0.72,0.72,0,0,1,160.35,69.72Zm3.29-1.39A0.72,0.72,0,0,1,163,68a0.62,0.62,0,0,1,.36-0.86l0.07,0a0.7,0.7,0,0,1,.93.33,0.62,0.62,0,0,1-.36.86l-0.07,0C163.82,68.3,163.71,68.33,163.64,68.33Zm3.25-1.39a0.69,0.69,0,0,1-.64-0.4,0.62,0.62,0,0,1,.36-0.86,0.73,0.73,0,0,1,1,.3,0.61,0.61,0,0,1-.32.86l-0.07,0A0.72,0.72,0,0,1,166.9,66.94Zm3.29-1.39a0.66,0.66,0,0,1-.64-0.4,0.62,0.62,0,0,1,.36-0.86l0.07,0a0.7,0.7,0,0,1,.93.33,0.62,0.62,0,0,1-.36.86l-0.07,0A0.89,0.89,0,0,1,170.19,65.54Zm3.25-1.39a0.69,0.69,0,0,1-.64-0.4,0.62,0.62,0,0,1,.36-0.86,0.73,0.73,0,0,1,1,.3,0.61,0.61,0,0,1-.32.86l-0.07,0A0.72,0.72,0,0,1,173.44,64.15Zm3.29-1.39a0.69,0.69,0,0,1-.64-0.4,0.62,0.62,0,0,1,.36-0.86,0.73,0.73,0,0,1,1,.3,0.61,0.61,0,0,1-.32.86l-0.07,0A0.89,0.89,0,0,1,176.73,62.75Z"/><path d="M205.84,34L202,43.17a0.84,0.84,0,0,1-1.39.2,32.66,32.66,0,0,0-12.91-9c-5.79-2.09-8.9-1.79-10.33-1.36a0.42,0.42,0,0,1-.54-0.56,13.82,13.82,0,0,1,1.39-2c1.32-1.53,3.75-3.39,4.43-4.95,1.39-3.32.18-6.67,1-8.5s2.32-2.66,6.47-1.16c8.58,3.09,14.45,14.37,15.73,17A1.45,1.45,0,0,1,205.84,34Z"/><path d="M196.54,43.8a0.21,0.21,0,0,0,.21-0.37c-1.47-1.39-5.54-5-10-6.61-5.54-2-9-1.89-9.48-.9-0.21.46,0.79,2.19,3.75,3.52S193.68,43.13,196.54,43.8Z"/><path d="M204.62,47.38c-2.18-.23-8.12-1.2-20.2-4.85a1.2,1.2,0,0,0-.89.07,80,80,0,0,1-16.09,5.64,0.41,0.41,0,0,0,0,.8c2.68,0.93,6.15,2.52,6.19,3.68s-1.61,4.45-3.4,6.91a0.43,0.43,0,0,0,.46.66c5.44-.83,24.71-4.15,34.26-12.18A0.42,0.42,0,0,0,204.62,47.38Z"/><path d="M210.85,47.88l-4.61-1.66a2.31,2.31,0,0,1-1.47-3.05l2.75-6.57a2.6,2.6,0,0,1,3.29-1.36l4.61,1.66a2.31,2.31,0,0,1,1.47,3.05l-2.75,6.57A2.61,2.61,0,0,1,210.85,47.88Z"/><path d="M220,39.12l-3.83,9.16a0.78,0.78,0,0,0,.89,1,34.82,34.82,0,0,1,16.06,1.46C239,52.86,241,55,241.78,56.25a0.43,0.43,0,0,0,.79-0.1,12.79,12.79,0,0,0,.39-2.32c0.11-2-.32-4.88.32-6.44,1.39-3.32,4.72-5,5.47-6.87s0.21-3.42-3.93-4.91c-8.58-3.09-21.1,1.56-24,2.72A1.38,1.38,0,0,0,220,39.12Z"/><path d="M219.75,52.16a0.21,0.21,0,0,1,.11-0.4c2.07-.1,7.76-0.23,12.16,1.36,5.54,2,8.08,4.25,7.65,5.28-0.21.46-2.15,1.13-5.33,0.27S222.36,53.46,219.75,52.16Z"/><path d="M211.2,49.74c1.79,1.16,6.87,4.22,18.45,9.1a1.14,1.14,0,0,1,.61.6,71.58,71.58,0,0,0,7.8,14.24,0.45,0.45,0,0,1-.57.63c-2.65-1-6.37-2-7.26-1.13s-2.07,4.28-2.5,7.24a0.48,0.48,0,0,1-.82.2c-3.4-4-15.2-18.52-16.45-30.44A0.47,0.47,0,0,1,211.2,49.74Z"/></svg>