<?xml version="1.0" encoding="utf-8"?>
<!-- Generator: Adobe Illustrator 19.0.0, SVG Export Plug-In . SVG Version: 6.00 Build 0)  -->
<svg version="1.1" id="Слой_1" xmlns="http://www.w3.org/2000/svg" xmlns:xlink="http://www.w3.org/1999/xlink" x="0px" y="0px"
	 viewBox="-97 190.9 400 460" style="enable-background:new -97 190.9 400 460;" xml:space="preserve">
<style type="text/css">
	.st0{fill:#D80038;}
</style>
<title>logo</title>
<path class="st0" d="M24.8,492.5c-0.3,2.9-0.7,5.5-1.1,8c-0.4,2.5-1,4.9-1.6,7.3c-0.7,2.4-1.6,4.7-2.7,7c-1.2,2.5-2.7,4.9-4.3,7.2
	c-2.2,3-4.7,5.8-7.5,8.3c-2.9,2.6-6.1,4.9-9.6,6.8c-3.6,1.9-7.4,3.4-11.4,4.3c-4.3,1-8.7,1.3-13.1,1c-4.9-0.2-9.7-1.6-14-4
	c-3.9-2.3-7.3-5.3-10-9c-2.8-3.8-4.9-8-6.3-12.5c-1.5-4.7-2.5-9.5-2.9-14.4c-0.4-4.9-0.4-9.8,0.1-14.7c0.5-4.6,1.5-9.2,3-13.6
	c-1.1-1.7-2.2-3.5-3.1-5.3c-1-2-2-4.1-2.9-6.3c-0.9-2.2-1.7-4.5-2.3-6.8c-0.6-2.3-0.9-4.6-1.1-6.9c-0.1-0.5,0-0.9,0.2-1.3
	c0.1-0.3,0.4-0.6,0.7-0.8c0.3-0.1,0.6,0,0.8,0.3c0.4,0.4,0.6,1,0.6,1.6c0.7,3.8,1.8,7.6,3.4,11.1c1.5,3.3,3.1,6.6,4.9,9.7
	c3.3-9.9,8.3-18,15.1-24.2c6.8-6.2,15-10.5,24-12.5c4.9-1.3,10-1.6,15-0.9c3.9,0.5,7.6,2,10.9,4.2c2.9,2.1,5.2,4.8,6.7,8
	c1.6,3.2,2.4,6.7,2.5,10.3c0.1,3.8-0.6,7.7-1.9,11.2c-1.4,4-3.6,7.6-6.4,10.8c-3.1,3.6-6.9,6.6-11,8.9c-4.9,2.7-10.2,4.6-15.7,5.5
	c-5.9,1.2-12,1.2-17.9,0.1c-5.9-1.2-11.3-4.3-16.3-9.2c-0.5,2.2-0.8,4.4-0.9,6.6c-0.3,3.8-0.3,7.6,0,11.3c0.3,4.5,0.9,9,1.9,13.4
	c0.9,4.5,2.5,8.8,4.8,12.8c2.1,3.7,5,6.9,8.6,9.4c3.5,2.4,8,3.5,13.3,3.3c6.8-0.4,13.4-2.1,19.5-5.2c6.2-3,11.7-7.3,16.1-12.6
	c1.8-2.1,3.4-4.3,4.7-6.8c1.2-2.2,2.1-4.5,2.9-6.9c0.8-2.4,1.3-4.8,1.7-7.3c0.4-2.5,0.7-5.2,1.1-8c0.1-1.1,0.5-1.6,1.1-1.5
	C24.8,490.4,25,491.2,24.8,492.5z M-13.7,436.6c-4.3,0.9-8.5,2.5-12.2,4.9c-3.8,2.5-7.3,5.5-10.3,9c-3.2,3.7-5.8,7.8-8,12.2
	c-2.3,4.7-4.1,9.6-5.3,14.6c4.8,5.5,10.1,8.9,15.9,10.4c6,1.4,12.2,1.4,18.2-0.1c6.9-1.6,12.6-4.1,17-7.6c4-3,7.3-7,9.6-11.5
	c2-3.9,2.9-8.3,2.7-12.7c-0.1-4-1.3-7.9-3.5-11.3c-2.3-3.3-5.6-5.8-9.4-7.2C-3.1,435.8-8,435.5-13.7,436.6z"/>
<path class="st0" d="M53.8,482.3c-0.2,2-0.5,4.3-0.9,6.8c-0.4,2.5-0.8,5-1.5,7.5c-0.6,2.4-1.5,4.7-2.6,6.9c-0.9,1.9-2.3,3.5-4.1,4.8
	c-1,0.6-2.1,1-3.2,1c-1.3,0.1-2.6-0.3-3.7-1.1c-1.4-1-2.4-2.4-3-4c-0.9-2.5-1.3-5.1-1.1-7.7c0.1-1.3,0.2-2.6,0.4-4.1
	c0.2-1.5,0.4-2.9,0.7-4.4c0.3-1.4,0.5-2.8,0.8-4c0.2-1.2,0.4-2.3,0.4-3c0.2-2.1-0.8-3.3-2.7-3.5c-2.6-0.1-5.2,0.4-7.7,1.3l-0.1,4
	c0,2-0.1,4.3-0.3,6.9c-0.2,2.6-0.4,5.3-0.8,8c-0.3,2.7-0.8,5.3-1.5,7.9c-0.5,2.2-1.3,4.4-2.2,6.5c-0.3,0.5-0.7,0.6-1.1,0.3
	c-0.4-0.4-0.5-0.9-0.3-1.4c1.2-3.8,2.2-7.7,2.8-11.7c0.6-4.1,1-8.2,1.2-12.3c0.2-4,0.1-8-0.1-12c-0.3-4-0.7-7.6-1.2-10.9
	c-0.3-1.3-0.1-2.6,0.7-3.7c0.6-0.8,1.6-1.1,2.6-1c1.2,0.2,2.2,0.9,3,1.8c1.1,1.3,1.8,2.9,1.9,4.5c0.2,1.8-0.2,3.7-1.1,5.3
	c-0.7,1.5-1.5,2.9-2.4,4.3c2.1-0.6,4.5-1.4,7.2-2.4s5.4-2.2,8-3.4c0.4,0.4,0.7,1,0.7,1.5c0.1,0.8,0.2,1.6,0.2,2.4
	c0,0.9,0,1.8-0.1,2.8c-0.1,1-0.1,1.9-0.2,2.6l-0.4,3.5c-0.2,1.7-0.4,3.5-0.7,5.6c-0.2,2-0.4,4.2-0.5,6.4c-0.1,2-0.1,3.9,0.1,5.9
	c0.1,1.4,0.5,2.8,1.1,4c0.5,0.9,1.6,1.4,2.5,1c1.1-0.4,2.1-1.6,2.9-3.5c0.9-2.1,1.6-4.4,2.2-6.6c0.6-2.5,1-4.9,1.4-7.4
	c0.3-2.5,0.6-4.4,0.8-5.8c0.2-1.1,0.6-1.7,1.1-1.5C53.8,480.2,54,480.9,53.8,482.3z"/>
<path class="st0" d="M57.6,493.2c0,1.7,0.5,3.4,1.3,4.9c0.7,1.2,2.2,1.8,3.5,1.3c1-0.2,1.8-0.7,2.5-1.4c0.7-0.7,1.3-1.5,1.8-2.4
	c1.3-3,2.3-6.1,2.8-9.4c0.7-3.7,1.2-7.5,1.7-11.1c0.1-1.2,0.4-1.7,1.1-1.6s0.9,0.8,0.8,2.1c-0.2,1.8-0.4,4.1-0.7,6.8
	c-0.3,2.7-0.8,5.5-1.6,8.1c-0.7,2.6-1.7,5-3,7.3c-1.1,2-2.9,3.5-5,4.3c-1.7,0.7-3.6,0.8-5.3,0.2c-1.4-0.6-2.7-1.5-3.5-2.8
	c-0.9-1.4-1.5-3-1.9-4.6c-0.4-1.7-0.5-3.4-0.4-5.2l0.7-20.6c0.1-1.1-0.3-2.1-1.1-2.9c-0.5-0.5-1.1-1-1.7-1.4l6.1-2.3
	c1.8-0.6,2.9-0.7,3.3-0.1c0.5,1,0.6,2.1,0.4,3.2l-1.6,24c0,0.5,0,1-0.1,1.5l-0.1,1.3C57.6,492.7,57.6,493,57.6,493.2z M60.2,450.6
	c0.2,1.3,0,2.7-0.8,3.9c-0.7,1.2-1.7,2.1-3,2.5c-1.1,0.5-2.4,0.4-3.5-0.3c-1.1-0.6-1.8-1.7-2-2.9c-0.2-1.3,0-2.7,0.8-3.9
	c0.7-1.2,1.7-2.1,3-2.5c1.2-0.5,2.5-0.4,3.5,0.3C59.3,448.3,60.1,449.4,60.2,450.6z"/>
<path class="st0" d="M101.7,464.6c-0.2,2.7-0.5,5.6-0.9,8.9c-0.4,3.1-1.1,6.2-2.3,9.2c-1,2.7-2.7,5.2-4.7,7.3
	c-2.2,2.1-5.2,3.2-8.2,3.2c-1.2,1.2-2.6,2.1-4.2,2.7c-3.3,1.2-6,1.2-8.1,0.2c-1.9-0.9-3.5-2.5-4.4-4.4c-0.9-1.8-1.2-3.8-0.9-5.8
	c0.3-1.9,1.1-3.2,2.4-3.7c0.5-3.3,1-7,1.5-11s0.9-7.9,1.3-11.6c0.1-1.3,0.3-2.6,0.6-3.9c0.3-1.3,0.7-2.5,1.1-3.7
	c0.4-1.1,1-2.2,1.7-3.1c1.6-2.1,4.1-3.2,6.7-3c1.2,0.2,1.9,0.6,1.9,1.2c0.1,0.7-0.5,0.9-1.7,0.8c-0.7,0-1.3,0-1.9,0.2
	c-0.6,0.2-1.2,0.5-1.7,1c-1,1-1.6,2.2-1.8,3.6c-0.1,1.4,0,2.8,0.4,4.2c0.4,1.4,1,2.7,1.7,4c0.6,1.1,1.4,2.2,2.3,3.1
	c1.6,1.8,3.3,3.6,5,5.4c1.7,1.8,3,4,3.6,6.4c0.6,2.5,0.6,5.1-0.1,7.5c-0.6,2.7-1.8,5.3-3.4,7.6l0.8-0.2c2-0.4,3.7-1.4,5-3
	c1.4-1.7,2.5-3.6,3.2-5.7c0.5-1.2,0.8-2.4,1-3.7c0.3-1.5,0.5-3,0.8-4.6c0.3-1.6,0.5-3.2,0.7-4.8c0.2-1.6,0.4-3.1,0.6-4.4
	c0-0.6,0.4-1,1-1c0,0,0.1,0,0.1,0c0.4-0.1,0.9,0.2,1,0.6C101.8,464.3,101.8,464.4,101.7,464.6z M84.3,478.1
	c-0.6-1.9-1.3-3.7-2.2-5.5c-0.9-1.8-1.8-3.7-2.8-5.5c-0.9-1.8-1.8-3.5-2.5-5.2c-0.7-1.4-1.2-2.9-1.5-4.5c-0.2,1.7-0.5,3.7-0.7,6
	c-0.3,2.2-0.5,4.4-0.8,6.7l-0.8,6.4c-0.3,2.1-0.5,3.8-0.8,5.2c0.4-0.2,0.9-0.2,1.4,0c0.4,0.2,0.8,0.4,1.1,0.8
	c0.5,0.6,0.8,1.2,1.1,1.9c0.5,2,1.6,3.7,3.2,5c1.3,1,2.8,1.7,4.5,1.9c1-1.7,1.6-3.5,1.8-5.4C85.5,483.3,85.2,480.6,84.3,478.1
	L84.3,478.1z M82,493.1c-1.5-0.4-2.9-1.1-4.1-2c-1.5-1.3-2.6-2.9-3.3-4.7c-0.6,1.1-0.8,2.3-0.8,3.5c0,1,0.3,2,0.9,2.9
	c0.5,0.8,1.3,1.4,2.2,1.7c1,0.3,2,0.3,3-0.1C80.7,494.1,81.4,493.7,82,493.1L82,493.1z"/>
<path class="st0" d="M119.8,434.3c0.3-0.1,0.6,0,0.8,0.2c0.2,0.2,0.3,0.5,0.4,0.8c0.1,0.3,0.1,0.6,0,0.9c0,0.3-0.2,0.5-0.5,0.6
	l-6.4,2.3c-0.8,3.9-1.8,7.8-3,11.6c-1.4,4.1-3.2,8.2-5.3,12c0,1.1,0.1,2.2,0.2,3.3c0.2,1.3,0.4,2.7,0.5,4.1c0.2,1.5,0.4,3.1,0.7,4.9
	c0.1,1.6,0.6,3.1,1.4,4.4c0.6,0.8,1.5,1.4,2.5,1.7c1,0.2,2,0,2.8-0.5c1-0.6,1.8-1.4,2.4-2.3c2-3,3.4-6.4,4.1-9.9
	c0.8-3.8,1.4-7.4,1.8-11c0.1-1.2,0.4-1.8,1.1-1.8c0.6,0,0.8,0.6,0.6,2c-0.3,3-0.7,5.6-1,7.6c-0.3,2-0.6,3.8-0.9,5.3
	c-0.3,1.4-0.7,2.9-1.2,4.2c-0.5,1.3-1,2.6-1.7,4c-0.9,1.9-2.3,3.6-4.1,4.7c-1.6,1.1-3.5,1.7-5.5,1.6c-2-0.1-3.8-0.9-5.2-2.3
	c-1.6-1.5-2.8-3.8-3.4-7c-0.5-2.3-0.8-4.5-1-6.9c-0.2-2.6-0.4-5.4-0.5-8.1s-0.1-5.6-0.1-8.5c0-2.8,0.1-5.5,0.2-8l-5.8,2
	c-0.3,0.1-0.6,0-0.8-0.1c-0.2-0.2-0.4-0.5-0.5-0.8c-0.1-0.3-0.1-0.7,0-1c0.1-0.3,0.3-0.5,0.6-0.6l6.7-2.4c0.3-3.3,0.6-6.5,1-9.6
	c0.4-3.2,0.9-6.2,1.5-9c0.5-3.4,1.7-6.6,3.6-9.4c1.7-2.2,3.3-3.4,5-3.4c1.7,0,3,1.1,4.1,3.5c1.1,2.4,1.4,6.2,0.9,11.4
	c-0.4,3.8-0.9,7.6-1.4,11.3L119.8,434.3z M106.2,441.9c-0.2,3.2-0.4,6.2-0.4,9.2c-0.1,2.9-0.2,5.5-0.3,7.8c1.4-3,2.6-6,3.5-9.1
	c1-3.2,1.8-6.4,2.5-9.6L106.2,441.9z M113.6,423.8c0.1-1.5,0.1-3.1-0.1-4.6c-0.1-1.3-0.4-2.6-0.9-3.9c-0.4-0.9-1-1.1-1.6-0.6
	c-0.7,0.5-1.4,2.2-2.3,5.3c-0.7,2.8-1.2,5.7-1.4,8.6c-0.3,3.3-0.5,6.8-0.8,10.5l5.6-2C112.8,432.6,113.3,428.2,113.6,423.8
	L113.6,423.8z"/>
<path class="st0" d="M180.3,437.5c-0.2,2-0.5,4.4-0.9,7.2c-0.4,2.8-1,5.6-1.8,8.3c-0.7,2.6-1.8,5.1-3.2,7.5c-1.6,3.1-4.9,5.1-8.4,5
	c-1.2,0-2.4-0.4-3.3-1.1c-1.2-0.9-2.1-2.2-2.7-3.5c-0.8-2.1-1.3-4.4-1.3-6.8c-0.1-2,0.1-3.9,0.4-5.9c0.4-2.3,0.9-4.9,1.6-8
	c0.3-1.1,0.3-2.2,0.1-3.3c0-0.7-0.6-1.2-1.3-1.2c0,0,0,0,0,0c-0.7,0.1-1.5,0.7-2.6,1.9c-1.5,1.9-2.8,3.9-3.8,6c-1,2-1.9,4-2.6,6.1
	c-1,2.6-1.9,5.3-2.6,8c-0.7,2.7-1.3,5.5-1.8,8.3c-0.4,2.2-0.5,4.5-0.3,6.7c-1.3,0.4-2.7,0.1-3.6-0.8c-1.2-1.1-1.9-2.5-2.1-4.1
	c-0.5-2.4-0.6-4.9-0.4-7.3c0.2-2.3,0.4-4.6,0.6-7c0.2-2.2,0.4-4.3,0.5-6.3c0.2-1.4,0.1-2.9-0.3-4.3c-0.3-0.8-1-0.7-2,0.3
	s-2.5,3.3-4.4,7.1c-1.7,3.2-3,6.5-4.1,9.9c-1.7,5.6-2.9,11.4-3.6,17.2c0,0.8-0.3,1.5-0.9,2c-0.8,0.5-1.7,1-2.7,1.3
	c-0.8,0.4-1.5,0.6-2,0.8c-0.6,0.2-1.1,0.6-1.5,1.1c0.8-6.3,1.5-12.4,2-18.3s1.3-11.9,2.2-17.9c0.3-2.4,0.8-4.7,1.7-6.9
	c0.8-1.5,2.1-2.5,3.7-2.9c0.8-0.2,1.6-0.3,2.4-0.4c0.8-0.1,1.7-0.4,2.4-0.8c-0.9,1.2-1.5,2.5-1.9,3.9c-0.7,2.1-1.3,4.3-1.7,6.5
	c-0.5,2.4-1,5-1.4,7.7s-0.8,5.2-1,7.6c0.6-1.8,1.4-3.9,2.4-6.4c0.9-2.4,2-4.6,3.3-6.9c0.9-1.7,1.9-3.4,2.9-5.4s2.1-3.7,3.1-5.2
	c0.9-1.4,2-2.8,3.2-4c0.8-0.9,2-1.5,3.2-1.6c1-0.1,2,0.4,2.7,1.2c0.6,0.9,0.9,2,0.7,3.1c-0.2,3-0.6,5.9-1.2,8.9
	c-0.6,3.2-1.1,6.4-1.4,9.6c0.6-1.8,1.4-3.9,2.4-6.4c1.8-4.4,4.1-8.6,6.9-12.4c1.4-2,3-3.9,4.7-5.8c1.5-1.6,3.1-3.1,4.8-4.5
	c1.1-1,2.4-1.6,3.9-1.9c-0.8,4.8-1.5,9.3-2.1,13.6c-0.3,1.8-0.5,3.7-0.6,5.6s-0.3,3.7-0.5,5.5c-0.1,1.7-0.1,3.4-0.1,4.8
	c0,1.3,0,2.6,0.2,3.8c0.4,2.4,1,3.9,1.7,4.5c0.6,0.5,1.4,0.7,2.1,0.4c1.4-0.5,2.6-1.8,3.6-3.9c1.1-2.2,1.9-4.6,2.5-7
	c0.7-2.5,1.2-5.1,1.5-7.7c0.3-2.6,0.6-4.6,0.7-6.1c0.1-1.1,0.5-1.7,1.1-1.6C180.2,435.5,180.5,436.2,180.3,437.5z"/>
<path class="st0" d="M219.3,423.7c-0.2,2-0.5,4.4-0.9,7.1c-0.4,2.7-1,5.4-1.7,8.1c-0.7,2.5-1.6,4.9-2.8,7.2
	c-0.9,1.8-2.3,3.3-4.1,4.2c-1,0.4-2,0.6-3.1,0.5c-1.2-0.1-2.4-0.5-3.3-1.3c-1.2-1.1-2.2-2.5-2.7-4c-0.9-2.4-1.4-5-1.5-7.6
	c-0.4,1.8-0.9,3.9-1.6,6.4c-0.7,2.4-1.6,4.7-2.7,6.9c-1.4,2.8-3,4.8-4.7,5.8c-1.4,1-3.2,1.3-4.9,0.8c-1.8-0.6-3.3-1.8-4.3-3.4
	c-1.4-2.1-2.3-4.5-2.8-7c-0.6-3.3-0.7-6.6-0.4-9.9c0.4-4.2,1.4-8.2,2.9-12.1c1-2.6,2.4-5.1,4.1-7.2c1.7-2.1,3.8-4,6.1-5.5
	c2.1-1.4,4.4-2.3,6.9-2.7c2.4-0.4,4.8,0.1,6.9,1.2c0.9,0.3,1.6,1.1,1.5,2.1c-0.1,0.9-0.8,1.5-1.6,1.6c-1-1.7-3-2.7-5-2.5
	c-2.2,0.3-4.1,1.4-5.5,3.1c-2.3,2.8-4.2,5.9-5.5,9.3c-1.6,3.8-2.9,7.8-3.7,11.9c-0.1,0.5-0.2,1.2-0.4,2.1s-0.3,2.1-0.4,3.3
	c-0.1,1.2-0.2,2.5-0.2,3.8c0,1.2,0.1,2.4,0.3,3.6c0.4,2,1,3.4,1.9,4.1c0.8,0.7,1.9,0.9,2.8,0.5c1.2-0.5,2.3-1.4,3-2.5
	c1.1-1.5,2.1-3.2,2.7-5c1.1-3.1,2-6.2,2.6-9.4c0.7-3.2,1.3-6.4,1.8-9.7c0.3-2.3,0.8-4.5,1.5-6.6c0.5-1.6,1.9-2.8,3.6-3.1
	c0.8-0.2,1.6-0.3,2.4-0.4c0.8-0.1,1.7-0.4,2.4-0.8c-0.5,1.3-1,2.7-1.2,4.1c-0.4,1.9-0.8,4.1-1.2,6.5c-0.4,2.4-0.6,4.9-0.7,7.3
	c-0.1,2.2-0.1,4.3,0.1,6.5c0.7,4.8,1.8,6.9,3.5,6.3c1.2-0.3,2.3-1.5,3.1-3.5c1-2.2,1.7-4.5,2.3-6.8c0.7-2.6,1.2-5.1,1.5-7.6
	c0.3-2.5,0.6-4.5,0.8-5.9c0.2-1.1,0.6-1.7,1.2-1.7C219.2,421.8,219.4,422.4,219.3,423.7z"/>
<path class="st0" d="M247.8,413c-0.2,2.7-0.5,5.6-0.9,8.9c-0.4,3.1-1.1,6.2-2.3,9.2c-1,2.7-2.7,5.2-4.7,7.3
	c-2.2,2.1-5.2,3.2-8.2,3.2c-1.2,1.2-2.6,2.1-4.2,2.7c-3.3,1.2-6,1.2-8.1,0.2c-1.9-0.9-3.5-2.5-4.4-4.4c-0.9-1.8-1.2-3.8-0.9-5.8
	c0.3-1.9,1.1-3.2,2.4-3.7c0.5-3.3,1-7,1.5-11s0.9-7.9,1.3-11.6c0.1-1.3,0.3-2.6,0.6-3.9c0.3-1.3,0.7-2.5,1.1-3.7
	c0.4-1.1,1-2.2,1.7-3.1c1.6-2.1,4.1-3.2,6.7-3c1.2,0.2,1.9,0.6,1.9,1.2c0.1,0.7-0.5,0.9-1.7,0.8c-0.7,0-1.3,0-1.9,0.2
	c-0.6,0.2-1.2,0.5-1.7,1c-1,1-1.6,2.2-1.8,3.6c-0.1,1.4,0,2.8,0.4,4.2c0.4,1.4,1,2.7,1.7,4c0.6,1.1,1.4,2.2,2.3,3.1
	c1.7,1.8,3.3,3.6,5,5.4c1.7,1.8,3,4,3.6,6.4c0.6,2.5,0.6,5.1-0.1,7.5c-0.6,2.7-1.8,5.3-3.5,7.6l0.8-0.2c2-0.4,3.7-1.4,5-3
	c1.4-1.7,2.5-3.6,3.2-5.7c0.5-1.2,0.8-2.4,1-3.7c0.3-1.5,0.5-3,0.8-4.6c0.3-1.6,0.5-3.2,0.7-4.8c0.2-1.6,0.4-3.1,0.6-4.4
	c0-0.6,0.4-1,1-1c0,0,0.1,0,0.1,0c0.4-0.1,0.9,0.2,0.9,0.7C247.9,412.7,247.9,412.9,247.8,413z M230.4,426.6
	c-0.6-1.9-1.3-3.7-2.2-5.5c-0.9-1.8-1.8-3.7-2.8-5.5c-0.9-1.8-1.8-3.5-2.5-5.2c-0.7-1.4-1.2-2.9-1.5-4.5c-0.2,1.7-0.5,3.7-0.7,5.9
	s-0.5,4.4-0.8,6.7c-0.3,2.2-0.6,4.4-0.9,6.4c-0.3,2.1-0.5,3.8-0.8,5.2c0.4-0.2,0.9-0.2,1.4,0c0.4,0.2,0.8,0.4,1.1,0.8
	c0.5,0.6,0.8,1.2,1.1,1.9c0.5,2,1.6,3.7,3.2,5c1.3,1,2.8,1.7,4.5,1.9c1-1.7,1.6-3.5,1.8-5.4C231.6,431.7,231.3,429.1,230.4,426.6
	L230.4,426.6z M228.1,441.6c-1.5-0.4-2.9-1.1-4.1-2.1c-1.5-1.3-2.6-2.9-3.3-4.7c-0.6,1.1-0.8,2.3-0.8,3.5c0,1,0.3,2,0.9,2.9
	c0.5,0.8,1.3,1.4,2.2,1.7c1,0.3,2,0.3,3-0.1C226.8,442.5,227.5,442.1,228.1,441.6L228.1,441.6z"/>
<path class="st0" d="M119.7,529.2c-1.6,2.5-3.7,4.6-6.2,6.2c-0.5,0.4-1,0.6-1.6,0.7c-0.4,0-0.7-0.2-0.8-0.5
	c-0.1-0.4,0.1-0.9,0.4-1.1c0.5-0.6,1.1-1,1.8-1.4c4-1.7,5.8-6.3,4.1-10.3c0,0,0,0,0,0c-0.9-2.1-2.5-3.8-4.4-5
	c-2.4-1.5-5.2-2.3-8.1-2.3c-3.9,0-7.8,0.8-11.4,2.3c-4.4,1.6-9.1,4.6-14.3,8.8c-2.8,2.2-5.2,4.9-7,7.9c-1.6,2.6-2.5,5.5-2.5,8.6
	c0,2.8,1.1,5.4,3,7.5c2,2.2,5.3,3.8,9.9,4.8c2.3,0.5,4.6,0.8,6.9,1l7.9,0.7c2.7,0.3,5.5,0.5,8.2,0.9c2.7,0.3,5.4,0.7,7.9,1.3
	c4,0.7,7.7,2.2,11,4.5c5.2,3.7,8.1,9.8,7.6,16.1c-0.2,3.4-0.9,6.7-2,9.9c-1.2,3.5-2.8,6.9-4.7,10.1c-2,3.3-4.2,6.5-6.7,9.5
	c-3.5,4.2-7.5,7.8-12,10.9c-4.7,3.3-9.7,6-15,8.2c-5.2,2.2-10.7,3.7-16.2,4.7c-5.2,0.9-10.5,0.9-15.6,0.1c-4.8-0.8-9.3-2.6-13.3-5.3
	c-4.1-3-7.3-7.1-9.2-11.8c-1.1-2.9-1.7-5.9-1.8-9c-0.1-3.5,0.2-6.9,0.9-10.3c0.7-3.5,1.8-6.9,3.4-10.1c1.4-3,3.4-5.8,5.8-8.2
	c0.4-0.3,0.8-0.6,1.2-0.9c0.3-0.2,0.7-0.4,1.1-0.5c0.3,0,0.4,0.2,0.4,0.5c-0.2,0.7-0.5,1.4-1,2c-1.1,1.7-2,3.5-2.8,5.3
	c-0.8,1.8-1.5,3.8-1.9,5.7c-0.9,3.8-1.2,7.8-1,11.7c0.2,3.9,0.9,7.7,2.1,11.3c1.3,4.2,3.7,7.9,7.1,10.8c3.2,2.5,6.9,4.3,10.9,5.1
	c4.3,0.9,8.7,1,13.1,0.3c4.7-0.7,9.4-1.9,13.8-3.6c4.5-1.8,8.9-4,13-6.7c3.9-2.5,7.6-5.5,10.8-8.9c3.6-3.8,6.6-8.2,8.7-13
	c1.9-4.1,2.9-8.6,3-13.1c0.1-3.9-1-7.8-3.1-11.1c-2.3-3.4-5.7-6-9.6-7.3c-2.5-0.9-5.2-1.4-7.9-1.7c-3-0.3-6.2-0.6-9.4-0.8
	s-6.4-0.4-9.6-0.7c-2.9-0.2-5.8-0.7-8.6-1.4c-5.1-1.3-8.8-3.4-10.9-6.3c-2.1-2.8-3.2-6.2-3-9.7c0.2-3.9,1.4-7.6,3.4-10.9
	c2.3-3.8,5.2-7.1,8.6-9.9c2.6-2.1,5.4-3.9,8.3-5.5c3.1-1.7,6.3-3.2,9.6-4.4c3.1-1.2,6.3-2.1,9.5-2.7c2.7-0.6,5.4-0.7,8.1-0.5
	c2.2,0.2,4.3,0.9,6.2,2c1.7,1,3.1,2.4,4.2,4c1,1.6,1.6,3.4,1.6,5.3C121.5,525.3,120.9,527.4,119.7,529.2z"/>
<path class="st0" d="M181.8,562.3c-0.2,2.2-0.5,4.8-0.9,7.6c-0.4,2.8-0.9,5.5-1.7,8.2c-0.7,2.5-1.7,4.8-3.1,7
	c-1.1,1.9-2.9,3.4-5,4.2c-1,0.3-2.1,0.5-3.2,0.5c-1.2,0-2.4-0.4-3.3-1.1c-1.2-0.9-2.1-2.2-2.7-3.5c-0.8-2.1-1.3-4.4-1.3-6.8
	c-0.1-2,0.1-3.9,0.4-5.9c0.4-2.3,0.9-4.9,1.6-8c0.3-1.1,0.3-2.2,0.1-3.3c0-0.7-0.6-1.2-1.3-1.2c0,0,0,0,0,0
	c-0.7,0.1-1.5,0.7-2.6,1.9c-1.5,1.9-2.8,3.9-3.8,6c-1.7,3.2-3.1,6.6-4.1,10.1c-1.7,5.7-3,11.5-3.7,17.4c0,0.8-0.3,1.5-0.9,2
	c-0.8,0.5-1.7,0.9-2.6,1.2c-0.8,0.4-1.5,0.6-2,0.8c-0.6,0.2-1.1,0.6-1.5,1.2c0.6-5.4,1.2-11.1,1.9-17.1s1.4-12.1,2-18.2
	c0.7-6.1,1.5-12.3,2.3-18.5c0.8-6.2,1.7-12.3,2.7-18.2c0.3-2.3,0.8-4.5,1.7-6.6c0.7-1.6,2.1-2.8,3.8-3.1c0.8-0.2,1.6-0.3,2.4-0.4
	c0.8-0.1,1.7-0.4,2.4-0.8c-0.7,1.7-1.3,3.5-1.7,5.3c-0.6,2.5-1.2,5.3-1.9,8.6c-0.6,3.3-1.3,6.9-1.9,10.8c-0.7,3.9-1.3,8-1.9,12.1
	c-0.6,4.1-1.2,8.3-1.8,12.4c-0.5,4.1-1,8-1.4,11.6c0.8-2.5,1.7-4.8,2.6-7c0.9-2.1,1.9-4.1,3-6c1.1-1.9,2.3-3.8,3.6-5.6
	c1.4-2,3-3.9,4.7-5.8c1.5-1.6,3-3.1,4.7-4.5c1.1-1,2.4-1.7,3.9-1.9c-0.8,4.8-1.5,9.3-2.1,13.6c-0.3,1.8-0.5,3.7-0.7,5.6
	c-0.2,1.9-0.4,3.7-0.5,5.5c-0.1,1.8-0.2,3.4-0.2,4.9c0,1.3,0.1,2.5,0.3,3.8c0.4,2.5,0.9,4,1.6,4.6c0.6,0.6,1.4,0.9,2.2,0.7
	c1.3-0.4,2.4-1.6,3.4-3.7c1-2.3,1.8-4.7,2.4-7.2c0.7-2.7,1.2-5.3,1.5-8c0.3-2.7,0.6-4.7,0.8-6c0.1-1.2,0.6-1.8,1.2-1.7
	C181.8,560.2,181.9,561,181.8,562.3z"/>
<path class="st0" d="M219.2,548.5c-0.1,1.2-0.2,3.1-0.4,5.7c-0.2,2.7-0.7,5.4-1.4,8c-0.7,2.7-1.7,5.3-3.1,7.7
	c-1.2,2.2-3.1,3.9-5.5,4.8c-1.5,0.6-3,0.8-4.6,0.7c-1.2-0.1-2.4-0.4-3.5-1c-1.1,1.6-2.4,3.1-3.8,4.5c-1.3,1.2-2.9,2.1-4.6,2.6
	c-1.8,0.7-3.9,0.7-5.7,0c-1.7-0.8-3.1-2.1-4.1-3.7c-1.2-2-2-4.2-2.3-6.4c-0.5-2.6-0.6-5.3-0.5-8c0.2-2.9,0.7-5.9,1.6-8.7
	c0.8-2.7,1.8-5.4,3.2-7.9c1.2-2.2,2.7-4.3,4.4-6.1c1.5-1.6,3.3-2.8,5.4-3.5c1.8-0.7,3.8-0.7,5.6,0c1.7,0.8,3.2,2.1,4.1,3.7
	c1.2,2,2,4.2,2.4,6.5c0.5,2.6,0.6,5.3,0.5,8c-0.2,2.6-0.7,5.3-1.4,7.8c-0.8,3-1.9,5.9-3.3,8.6c1.6,1.5,3.7,1.8,6.2,0.9
	c1.9-0.7,3.4-2.2,4.3-4c1.1-2.2,2-4.5,2.5-6.9c0.6-2.5,1-5,1.3-7.6c0.3-2.5,0.5-4.6,0.7-6.1c0-0.6,0.4-1,1-1c0.1,0,0.1,0,0.1,0
	C219,547.1,219.2,547.6,219.2,548.5z M197.8,539.8c-1.4,0.2-2.7,0.8-3.7,1.9c-1.3,1.3-2.4,2.8-3.2,4.5c-1,2-1.8,4.2-2.4,6.4
	c-0.7,2.4-1.1,4.9-1.4,7.4c-0.3,2.5-0.4,4.9-0.3,7.4c0.1,2,0.3,4,0.8,5.9c0.3,1.4,0.9,2.8,1.8,3.9c0.7,0.9,1.7,1.4,2.8,1.3
	c1.3-0.1,2.5-0.7,3.4-1.6c1.2-1.1,2.3-2.4,3.1-3.9c-0.9-0.7-1.7-1.4-2.3-2.3c-0.6-0.8-1.1-1.6-1.4-2.5c-0.4-1.2-0.4-2.4-0.2-3.7
	c0.3-1.2,1.2-2.2,2.4-2.5c0.9-0.3,1.9-0.3,2.8,0.2c0.8,0.4,1.5,1.1,1.8,2c0.1,0.2,0.1,0.4,0.2,0.6c0,0.2,0,0.4,0,0.7
	c0.6-2.4,1.1-4.8,1.3-7.2c0.3-2.5,0.4-5,0.2-7.5c-0.1-2-0.4-4-1-5.9c-0.4-1.4-1.1-2.7-2-3.9C199.9,540.3,198.9,539.8,197.8,539.8z"
	/>
<path class="st0" d="M238.8,521.2c2.6-0.4,5.1,0.7,6.6,2.8c1.6,2.4,2.6,5.1,2.9,8c0.5,3.5,0.4,7-0.1,10.5c-0.5,3.6-1.3,7.1-2.5,10.5
	c-0.9,2.4-2.1,4.6-3.5,6.6c-1.4,1.9-3.1,3.7-5,5.1c-1.8,1.4-3.9,2.4-6.1,3c-2.3,0.6-4.6,0.7-6.9,0.2l-1.2,30c-0.1,2-0.6,4.1-1.5,5.9
	c-0.9,1.3-2.3,2.2-3.9,2.5c-0.8,0.2-1.6,0.3-2.4,0.4c-0.9,0.1-1.7,0.3-2.4,0.7c0.5-1.5,0.9-3.1,1.2-4.7c0.5-2.6,1-5.7,1.6-9.3
	c0.5-3.7,1.1-7.6,1.7-11.9c0.6-4.3,1-8.5,1.4-12.5s0.6-7.8,0.7-11.1c0.1-2.6,0.1-5.2-0.2-7.8c-0.1,1-0.6,1.9-1.4,2.5
	c-0.7,0.5-1,0.3-0.9-0.6c0.1-0.7,0.2-1.6,0.2-2.8c0.1-1.2,0.1-2.2,0.2-3c0.1-1.5,0.1-3.1-0.1-4.6c-0.1-1.6-0.4-3.2-0.8-4.7
	c-0.3-1.3-0.8-2.5-1.4-3.6c-0.3-0.8-1.1-1.3-1.9-1.2c0.8-0.4,1.5-0.9,2.2-1.3c0.5-0.3,1.1-0.6,1.7-0.9c0.4-0.2,0.8-0.4,1.2-0.6
	l1.9-0.9c0.4-0.2,0.9-0.3,1.4-0.2c0.5,0.2,0.9,0.6,1.2,1.2c0.5,1,0.9,2,1.1,3c0.7,2.3,1.1,4.6,1.3,7c0.3,2.5,0.4,5,0.3,7.5
	c0.3-1.6,0.8-3.9,1.5-6.7c0.7-2.9,1.5-5.7,2.6-8.4c1-2.6,2.3-5,3.8-7.2C234.6,522.6,236.6,521.4,238.8,521.2z M241.9,539.6
	c0.7-3.3,0.7-6.6,0-9.9c-0.7-2.5-1.6-4-2.9-4.6s-2.7,0-4.3,1.6c-1.6,1.6-2.9,4.5-4.1,8.7c-1.3,4.5-2.4,9-3.2,13.6
	c-1,5.4-1.9,11.1-2.8,16.9c1.8,0.9,4,0.6,5.5-0.8c2.1-1.7,3.9-3.7,5.2-6.1c1.7-2.9,3.1-6.1,4.2-9.3
	C240.5,546.5,241.4,543.1,241.9,539.6L241.9,539.6z"/>
<path class="st0" d="M157.9,326.6c-0.7-5.1-2.2-10.1-4.5-14.6l-5.7-11.2l-12.9-25.4c-0.4-0.7-1.3-0.9-2-0.5
	c-2.1,1.3-4.8,0.8-6.3-1.1l0,0c-0.8-0.9-2.1-1.2-3.2-0.7l-52,22.1c-1,0.4-1.4,1.4-1.1,2.4c0,0.1,0,0.1,0.1,0.2l12.1,23.9
	c0.2,0.5,0.4,1,0.6,1.5c0.2,0.7,0.3,1.5,0.4,2.3c0,0.5,0,1-0.1,1.5c0,0.2-0.1,0.5-0.1,0.7c-0.1,0.5-0.3,1-0.5,1.4
	c-0.6,1.4-1.6,2.7-2.8,3.7l-28.4,22.5c-1.8,1.4-3.5,3-4.9,4.8c-0.2,0.2-0.4,0.4-0.5,0.7c-0.8,1.1-1.6,2.2-2.4,3.4
	c-0.3,0.5-0.5,0.9-0.8,1.4c-0.5,0.9-1,1.9-1.4,2.9c-0.2,0.5-0.4,1-0.6,1.5c-0.7,2-1.1,4.1-1.4,6.1c-0.3,2.6-0.3,5.2,0.1,7.8
	c0.1,1,0.4,2.1,0.6,3.1c1.3,5.4,4.1,10.3,8,14.3l0,0c0.4,0.4,0.8,0.8,1.3,1.2l0.4,0.4c0.3,0.3,0.6,0.5,0.9,0.8
	c0.2,0.2,0.4,0.3,0.5,0.4l0.8,0.7c0.2,0.2,0.4,0.3,0.6,0.4c0.3,0.2,0.5,0.4,0.8,0.6c0.2,0.1,0.4,0.3,0.6,0.4l0.8,0.5l0.7,0.4
	l0.8,0.5c0.2,0.1,0.5,0.2,0.7,0.4c0.3,0.1,0.6,0.3,0.9,0.4c0.3,0.2,0.5,0.2,0.7,0.3s0.6,0.3,0.9,0.4l0.7,0.3
	c0.3,0.1,0.6,0.2,0.9,0.3s0.5,0.2,0.8,0.3l0.9,0.3c0.2,0.1,0.5,0.2,0.8,0.2s0.6,0.2,0.9,0.3l0.7,0.2c0.3,0.1,0.7,0.1,1,0.2l0.7,0.1
	l1.1,0.2l0.6,0.1l1.7,0.2h0.1c0.5,0,1,0.1,1.6,0.1c0.2,0,0.4,0,0.6,0c0.4,0,0.8,0,1.1,0h1.6c0.5,0,1,0,1.5-0.1h0.1
	c0.5,0,1.1-0.1,1.6-0.2c0.2,0,0.4-0.1,0.5-0.1c0.3,0,0.7-0.1,1-0.2c0.2,0,0.4-0.1,0.6-0.1l0.9-0.2c0.2,0,0.5-0.1,0.7-0.2l0.9-0.2
	l0.7-0.2c0.3-0.1,0.6-0.2,0.9-0.3c0.2-0.1,0.5-0.1,0.7-0.2l0.8-0.3c0.2-0.1,0.5-0.2,0.7-0.3c0.3-0.1,0.6-0.2,0.8-0.3l0.4-0.2
	l0.2-0.1l0.8-0.4c0.2-0.1,0.4-0.2,0.7-0.3l0.8-0.4c0.2-0.1,0.4-0.2,0.6-0.3l0.8-0.5l0.6-0.4c0.3-0.2,0.6-0.4,0.8-0.5
	s0.4-0.2,0.5-0.4l0.9-0.6l0.5-0.3c0.4-0.3,0.9-0.7,1.3-1l44.2-36.5c1.3-1,2.5-2.2,3.6-3.3c7.1-7,11.6-16.2,13-26.1
	c0.2-1.2,0.3-2.5,0.3-3.7c0-0.6,0-1.2,0-1.9C158.1,330.3,158,328.5,157.9,326.6z M78,305.1c-0.1,0-0.3,0-0.4-0.1
	c-0.3-0.2-0.4-0.5-0.2-0.8c0,0,0,0,0-0.1l3.8-5.5c1.3-1.8,3.6-2.6,5.8-2l2.1,0.6c1.7,0.5,3.4-0.2,4.3-1.7l1.4-2.3
	c1.2-2,3.6-2.9,5.9-2.3l1.8,0.4c1.6,0.4,3.3-0.2,4.3-1.6l1.4-2.2c1.2-1.9,3.6-2.8,5.8-2.3l2.2,0.5c1.5,0.4,3.1-0.2,4.1-1.5l2.2-3.2
	c1.2-1.7,3.4-2.5,5.4-2.1l6.2,1.3c0.4,0,0.6,0.4,0.5,0.7c0,0,0,0,0,0c-0.1,0.4-0.5,0.6-0.9,0.5l-6.2-1.3c-1.5-0.3-3,0.3-3.9,1.5
	l-2.2,3.2c-1.3,1.7-3.5,2.5-5.6,2l-2.2-0.5c-1.6-0.4-3.3,0.2-4.2,1.6l-1.4,2.2c-1.3,1.9-3.6,2.8-5.9,2.3l-1.8-0.4
	c-1.7-0.4-3.4,0.3-4.3,1.7l-1.4,2.3c-1.3,2-3.7,2.9-6,2.3l-2.1-0.6c-1.6-0.4-3.3,0.1-4.2,1.5l-3.8,5.5C78.4,305,78.2,305.1,78,305.1
	z M79.4,307.6c-0.1,0-0.2,0-0.3-0.1c-0.2-0.1-0.3-0.4-0.2-0.6c0,0,0,0,0,0l3.6-5.3c1.3-1.9,3.7-2.7,5.9-2.1l1.7,0.5
	c1.9,0.5,3.8-0.2,4.9-1.9l1.1-2c1.3-2,3.7-3,6-2.4l1.3,0.3c1.8,0.5,3.7-0.3,4.8-1.8l1.1-1.9c1.3-2,3.6-2.9,5.9-2.3l1.8,0.4
	c1.7,0.5,3.5-0.2,4.6-1.6l2-2.9c1.3-1.7,3.4-2.6,5.5-2.1l6,1.2c0.3,0,0.4,0.3,0.4,0.6c0,0,0,0,0,0c-0.1,0.3-0.4,0.4-0.6,0.4l-6-1.2
	c-1.7-0.4-3.4,0.3-4.4,1.7l-2,2.9c-1.3,1.8-3.6,2.6-5.7,2.1L115,289c-1.8-0.5-3.7,0.3-4.7,1.8l-1.1,1.9c-1.3,2-3.7,2.9-6,2.3
	l-1.3-0.3c-1.8-0.5-3.8,0.3-4.8,1.9l-1.1,2c-1.3,2-3.8,3-6.1,2.3l-1.7-0.5c-1.8-0.5-3.6,0.1-4.7,1.6l-3.6,5.3
	C79.7,307.5,79.6,307.5,79.4,307.6L79.4,307.6z M72.7,347.7c3-0.6,5.6,1.8,5,4.6c-0.4,1.5-1.6,2.6-3.1,2.9c-3,0.6-5.6-1.8-5-4.6
	C70,349.1,71.2,348,72.7,347.7L72.7,347.7z M91.1,404.4c-13.1,7.8-29.8,5.7-40.7-5c-5.7-5.7-8.6-13.6-8.1-21.6
	c0.5-7.1,3.7-13.8,8.9-18.7c2.6-0.5,5.2-0.8,7.8-0.8c19.4,0,35.2,14.6,35.2,32.7C94.2,395.7,93.1,400.2,91.1,404.4L91.1,404.4z
	 M85.3,338.1c-0.2-1.3,0.7-2.6,2-2.8c0.3-0.1,0.7,0,1,0c1,0.2,1.8,0.9,2,1.9c0.2,1.3-0.7,2.6-2,2.8c-0.3,0.1-0.7,0-1,0
	C86.3,339.8,85.5,339.1,85.3,338.1L85.3,338.1z M91.5,318c-3,0.6-5.6-1.8-5-4.6c0.4-1.5,1.6-2.6,3.1-2.9c3-0.6,5.6,1.8,5,4.6
	C94.2,316.6,93,317.7,91.5,318L91.5,318z M98.3,360.8c-1.3,0.3-2.5-0.5-2.8-1.8c-0.1-0.3-0.1-0.6,0-0.9c0.2-0.9,0.9-1.6,1.9-1.7
	c1.3-0.3,2.5,0.5,2.8,1.8c0.1,0.3,0.1,0.6,0,0.8C100,359.9,99.2,360.6,98.3,360.8L98.3,360.8z M103.8,386.6c-2.1-0.2-3.7-2-3.6-4.1
	s2-3.7,4.1-3.6c2,0.2,3.6,1.8,3.6,3.8C107.9,385,106.1,386.7,103.8,386.6C103.8,386.6,103.8,386.6,103.8,386.6L103.8,386.6z
	 M108,341.1c-2.1-0.2-3.7-2-3.6-4.1s2-3.7,4.1-3.6c2,0.2,3.6,1.8,3.6,3.8C112.1,339.4,110.2,341.2,108,341.1
	C108,341.1,108,341.1,108,341.1z M114,314c-1.2,0.2-2.4-0.7-2.6-2c-0.2-1.2,0.7-2.4,2-2.6s2.4,0.7,2.6,2c0,0.3,0,0.5,0,0.8
	C115.7,313.1,114.9,313.8,114,314z M116.3,291.5c-1.7-0.4-3.6,0.3-4.5,1.8l-1.4,2.3c-1.1,1.8-3.3,2.6-5.4,2.1l-1.8-0.5
	c-1.8-0.5-3.7,0.2-4.7,1.8l-1.4,2.4c-1.2,1.8-3.4,2.7-5.5,2.1l-2.2-0.6c-1.7-0.5-3.5,0.2-4.5,1.6l-3.8,5.5c-0.1,0.1-0.2,0.2-0.3,0.2
	c-0.1,0-0.1,0-0.2-0.1c-0.2-0.1-0.2-0.3-0.1-0.4c0,0,0,0,0,0l3.8-5.5c1.2-1.7,3.3-2.4,5.3-1.9l2.2,0.6c1.8,0.5,3.7-0.2,4.6-1.8
	l1.4-2.4c1.1-1.8,3.3-2.7,5.4-2.1l1.8,0.5c1.7,0.5,3.6-0.2,4.6-1.8l1.4-2.3c1.2-1.8,3.3-2.6,5.3-2.1l2.3,0.6
	c1.7,0.4,3.4-0.2,4.4-1.6l2.3-3.3c1.1-1.6,3.1-2.3,5-1.9l6.3,1.3c0.2,0,0.3,0.2,0.3,0.4c0,0.2-0.2,0.3-0.4,0.3l-6.3-1.3
	c-1.6-0.4-3.3,0.3-4.3,1.6l-2.3,3.3c-1.2,1.6-3.2,2.4-5.2,1.9L116.3,291.5z M137.8,293.8c0.7,2.8-2,5.2-5,4.6
	c-1.5-0.3-2.7-1.4-3.1-2.9c-0.7-2.8,2-5.2,5-4.6C136.2,291.2,137.4,292.3,137.8,293.8L137.8,293.8z M123.4,365.2
	c-1.3,0.3-2.6-0.5-3-1.8c-0.1-0.3-0.1-0.7,0-1c0.2-1,1-1.7,2-1.8c1.3-0.3,2.5,0.4,2.9,1.7c0.3,1.3-0.4,2.5-1.7,2.9
	C123.5,365.2,123.4,365.2,123.4,365.2z M154.3,340.3c-1.8,8.7-6.2,16.6-12.7,22.6c-12.8-4.9-21.9-16.6-21.9-30.2
	c0-14.7,10.5-27.1,24.9-31.2l5.6,11.1C154.8,321.1,156.2,330.8,154.3,340.3L154.3,340.3z"/>
<path class="st0" d="M63,291.9c0.7,1.3,2.1,2.2,3.6,2.2c0.2,0,0.4,0,0.6-0.1l55-23.4c0.5-0.2,0.7-0.8,0.5-1.3c0-0.1-0.1-0.1-0.1-0.2
	l0,0c-0.7-0.9-2-1.2-3-0.7l-50,21.7l-2.6,1.1c-0.1,0-0.1,0-0.2,0c-0.1,0-0.2,0.1-0.2,0.1c-0.4,0-0.7-0.2-0.9-0.5l-14.5-28.8
	c-0.1-0.2-0.1-0.5,0-0.7c0.1-0.3,0.3-0.4,0.5-0.5l16.5-7.1c0.6-0.3,1-0.9,0.8-1.6l0,0c-0.3-0.8-1.2-1.2-2-1c-0.1,0-0.1,0-0.2,0.1
	l-16.4,7.1c-1.9,0.7-2.8,2.8-2.1,4.7c0,0.1,0.1,0.2,0.1,0.3L63,291.9z"/>
<path class="st0" d="M89.7,398.3c0.3,0.1,0.6,0.4,0.5,0.7c0,0,0,0.1,0,0.1v0.1c0,0.1-0.1,0.1-0.1,0.2c-0.2,0.3-0.5,0.4-0.8,0.3
	c-0.3-0.1-0.6-0.4-0.5-0.7c0,0,0-0.1,0-0.1v-0.1c0-0.1,0.1-0.1,0.1-0.2C89.1,398.3,89.4,398.2,89.7,398.3z M49.6,362.4
	C49.6,362.4,49.5,362.4,49.6,362.4c-0.2,0-0.4,0.1-0.5,0.3c-0.1,0.2-0.1,0.4-0.1,0.5c0.1,0.4,0.5,0.6,0.9,0.5H50
	c0.2,0,0.3-0.1,0.4-0.3c0.1-0.2,0.1-0.4,0.1-0.5C50.3,362.5,50,362.3,49.6,362.4C49.6,362.4,49.6,362.4,49.6,362.4L49.6,362.4z
	 M53.1,361.7L53.1,361.7c-0.3,0-0.4,0.1-0.5,0.3c-0.1,0.1-0.1,0.3-0.1,0.5c0.1,0.4,0.4,0.6,0.8,0.5h0.1c0.2,0,0.4-0.1,0.5-0.3
	c0.1-0.1,0.1-0.3,0.1-0.5C53.8,361.9,53.4,361.6,53.1,361.7L53.1,361.7L53.1,361.7z M87.9,401.7c0,0,0,0.1-0.1,0.1v0.1
	c-0.1,0.3,0,0.7,0.3,0.8c0,0,0.1,0,0.1,0c0.3,0.1,0.6,0,0.8-0.3c0,0,0.1-0.1,0.1-0.1c0,0,0,0,0-0.1c0.1-0.3,0-0.7-0.3-0.8
	c0,0-0.1,0-0.1,0C88.4,401.3,88.1,401.4,87.9,401.7L87.9,401.7z M90.7,396.2c0.1-0.1,0.1-0.2,0.1-0.3v-0.1l0,0
	c0-0.4-0.2-0.7-0.6-0.7c0,0,0,0,0,0c-0.3,0-0.5,0.1-0.7,0.3c-0.1,0.1-0.1,0.2-0.1,0.3v0.1c0,0.4,0.2,0.7,0.6,0.7c0,0,0,0,0,0
	C90.3,396.5,90.6,396.4,90.7,396.2L90.7,396.2z M70.7,363.6L70.7,363.6c-0.3-0.1-0.7,0-0.9,0.2c0,0,0,0.1-0.1,0.1
	c-0.1,0.3,0,0.7,0.4,0.9c0,0,0,0,0,0h0.1c0.3,0.1,0.7,0,0.9-0.3c0,0,0-0.1,0.1-0.1C71.3,364.1,71.2,363.7,70.7,363.6
	C70.8,363.6,70.8,363.6,70.7,363.6L70.7,363.6L70.7,363.6z M56.7,361.4L56.7,361.4c-0.3,0-0.5,0.1-0.6,0.3c-0.1,0.1-0.1,0.3-0.1,0.4
	c0,0.4,0.4,0.6,0.8,0.6h0.1c0.2,0,0.4-0.1,0.6-0.3c0.1-0.1,0.1-0.3,0.1-0.4C57.4,361.6,57.1,361.4,56.7,361.4L56.7,361.4L56.7,361.4
	z M63.8,361.8L63.8,361.8c-0.3,0-0.6,0.1-0.7,0.3c0,0.1-0.1,0.2-0.1,0.2c-0.1,0.4,0.2,0.7,0.5,0.8c0,0,0,0,0,0h0.1
	c0.3,0,0.6-0.1,0.7-0.3c0-0.1,0.1-0.2,0.1-0.2C64.5,362.2,64.3,361.8,63.8,361.8C63.9,361.8,63.9,361.8,63.8,361.8L63.8,361.8
	L63.8,361.8z M87.4,404.5c-0.3-0.2-0.7-0.1-0.9,0.2c0,0,0,0,0,0.1v0.1c-0.2,0.3-0.1,0.7,0.3,0.9c0,0,0,0,0.1,0
	c0.3,0.2,0.7,0.1,0.9-0.2c0,0,0,0,0-0.1s0,0,0-0.1c0.2-0.3,0.1-0.7-0.2-0.9C87.5,404.5,87.4,404.5,87.4,404.5L87.4,404.5z
	 M60.2,361.4c-0.2,0-0.5,0.1-0.6,0.3c-0.1,0.1-0.1,0.2-0.1,0.3c0,0.4,0.3,0.7,0.7,0.7c0,0,0,0,0,0h0.1c0.2,0,0.5-0.1,0.6-0.3
	c0.1-0.1,0.1-0.2,0.1-0.3c0-0.4-0.3-0.7-0.6-0.7C60.3,361.4,60.3,361.4,60.2,361.4C60.2,361.4,60.2,361.4,60.2,361.4L60.2,361.4z
	 M67.4,362.5L67.4,362.5c-0.3-0.1-0.6,0-0.8,0.3c0,0-0.1,0.1-0.1,0.2c-0.1,0.3,0.1,0.7,0.4,0.8c0,0,0,0,0.1,0h0.1
	c0.3,0.1,0.6,0,0.8-0.3c0,0,0.1-0.1,0.1-0.2C68,362.9,67.8,362.6,67.4,362.5L67.4,362.5L67.4,362.5z M81.5,372.1
	c0.3,0.3,0.7,0.3,1,0c0,0,0.1-0.1,0.1-0.1c0.2-0.2,0.1-0.6-0.1-0.8l0,0c-0.3-0.3-0.7-0.3-1,0c0,0-0.1,0.1-0.1,0.1
	C81.2,371.5,81.2,371.9,81.5,372.1z M79,369.8c0.3,0.2,0.7,0.2,1-0.1l0.1-0.1c0.2-0.3,0.1-0.7-0.1-0.9l0,0l0,0
	c-0.3-0.2-0.7-0.2-1,0.1l-0.1,0.1C78.7,369.2,78.7,369.6,79,369.8z M90.5,391.8c-0.2,0-0.5,0.1-0.6,0.3c-0.1,0.1-0.1,0.2-0.1,0.3
	v0.1c0,0.4,0.3,0.7,0.7,0.7c0,0,0,0,0,0c0.2,0,0.4-0.1,0.6-0.3c0.1-0.1,0.1-0.2,0.1-0.3v-0.1C91.1,392.1,90.8,391.8,90.5,391.8
	L90.5,391.8z M76.3,367.9c0.3,0.2,0.8,0.2,1-0.2l0,0c0.2-0.3,0.1-0.7-0.2-0.9c0,0,0,0,0,0l0,0l0,0c-0.3-0.2-0.8-0.2-1,0.2l0,0
	C75.9,367.3,76,367.7,76.3,367.9C76.2,367.9,76.3,367.9,76.3,367.9z M73,365.2L73,365.2c-0.2,0.3-0.1,0.7,0.2,0.9c0,0,0,0,0.1,0h0.1
	c0.3,0.2,0.7,0.1,0.9-0.2l0,0c0.2-0.3,0.1-0.7-0.2-0.9c0,0,0,0-0.1,0l0,0C73.7,364.8,73.2,364.9,73,365.2z M83.6,374.5
	c0.2,0.3,0.7,0.4,1,0.1c0.1,0,0.1-0.1,0.2-0.2c0.2-0.2,0.2-0.5,0-0.7c0,0,0,0,0-0.1c-0.2-0.3-0.7-0.4-1-0.1c-0.1,0-0.1,0.1-0.2,0.2
	C83.5,373.9,83.5,374.2,83.6,374.5L83.6,374.5z M89.7,388.8c-0.1,0.1-0.1,0.3-0.1,0.4v0.1c0.1,0.4,0.4,0.6,0.8,0.6
	c0.2,0,0.4-0.1,0.5-0.3c0.1-0.1,0.1-0.3,0.1-0.4v-0.1c-0.1-0.4-0.4-0.6-0.8-0.6C90,388.6,89.9,388.7,89.7,388.8L89.7,388.8z
	 M85.5,377.2c0.2,0.3,0.7,0.4,1,0.2c0.1-0.1,0.2-0.1,0.2-0.2c0.1-0.2,0.1-0.5,0-0.7c0,0,0,0,0-0.1c-0.2-0.3-0.7-0.4-1-0.2
	c-0.1,0.1-0.2,0.1-0.2,0.2C85.4,376.6,85.4,376.9,85.5,377.2L85.5,377.2z M89.2,385.6c-0.1,0.1-0.2,0.3-0.1,0.5v0.1
	c0.1,0.4,0.4,0.6,0.8,0.5c0.2,0,0.4-0.1,0.5-0.3c0.1-0.1,0.1-0.3,0.1-0.5l0,0l0,0l0,0c-0.1-0.4-0.4-0.6-0.8-0.5c0,0,0,0,0,0
	C89.5,385.4,89.3,385.4,89.2,385.6L89.2,385.6z M88.2,383L88.2,383c0.1,0.4,0.5,0.6,0.9,0.5c0.2,0,0.3-0.1,0.4-0.3
	c0.1-0.2,0.1-0.4,0.1-0.6l0,0l0,0c-0.1-0.3-0.5-0.5-0.9-0.4c-0.2,0-0.3,0.1-0.4,0.3C88.2,382.7,88.2,382.8,88.2,383L88.2,383z
	 M87,380c0.2,0.3,0.6,0.5,0.9,0.3c0.1,0,0.2-0.1,0.3-0.2c0.1-0.2,0.1-0.4,0.1-0.6l0,0c-0.2-0.3-0.6-0.5-0.9-0.3
	c-0.1,0-0.2,0.1-0.3,0.2C87,379.5,87,379.8,87,380L87,380z"/>
<path class="st0" d="M124.8,337.3c-0.4,0.1-0.7-0.2-0.8-0.6l0,0l0,0l0,0c0-0.2,0-0.3,0.1-0.4c0.1-0.2,0.3-0.3,0.5-0.3
	c0.4-0.1,0.7,0.2,0.8,0.6v0.1c0,0.2,0,0.3-0.1,0.4C125.1,337.2,125,337.2,124.8,337.3z M125.9,340.2c0.1-0.1,0.1-0.3,0.1-0.5v-0.1
	c-0.1-0.4-0.5-0.6-0.9-0.5c-0.2,0-0.3,0.1-0.4,0.3c-0.1,0.1-0.1,0.3-0.1,0.5l0,0l0,0v0.1c0.1,0.4,0.5,0.6,0.8,0.5c0,0,0,0,0,0
	C125.7,340.4,125.8,340.3,125.9,340.2z M127,342.7L127,342.7c-0.1-0.4-0.5-0.6-0.9-0.5c-0.1,0-0.3,0.1-0.4,0.3
	c-0.1,0.2-0.1,0.4-0.1,0.6v0.1c0.1,0.3,0.5,0.5,0.9,0.4c0.1,0,0.3-0.1,0.4-0.3C127.1,343.1,127.1,342.9,127,342.7L127,342.7z
	 M125,333.7c0.1-0.1,0.1-0.2,0.1-0.4v-0.1c0-0.4-0.3-0.6-0.7-0.6c0,0,0,0-0.1,0c-0.2,0-0.4,0.1-0.6,0.3c-0.1,0.1-0.1,0.2-0.1,0.4
	v0.1c0,0.4,0.3,0.6,0.7,0.6c0,0,0,0,0.1,0C124.7,334,124.9,333.9,125,333.7L125,333.7z M129.4,318.1L129.4,318.1L129.4,318.1
	c0.2-0.4,0.1-0.8-0.2-0.9c0,0,0,0-0.1,0c-0.3-0.2-0.8-0.1-1,0.2l0,0c0,0,0,0,0,0.1l0,0c-0.2,0.3-0.1,0.7,0.2,0.9c0,0,0,0,0.1,0
	C128.7,318.5,129.2,318.4,129.4,318.1L129.4,318.1z M128.4,345.6c-0.2-0.3-0.6-0.5-0.9-0.3c-0.1,0.1-0.2,0.1-0.3,0.2
	c-0.1,0.2-0.1,0.4,0,0.6c0,0,0,0,0,0.1l0,0c0.2,0.3,0.6,0.5,0.9,0.3c0.1-0.1,0.2-0.1,0.3-0.2C128.5,346.1,128.5,345.9,128.4,345.6
	L128.4,345.6z M125.8,324.3c0.3,0.1,0.6,0,0.8-0.3c0,0,0.1-0.1,0.1-0.2v-0.1c0.1-0.3-0.1-0.7-0.4-0.8c0,0,0,0,0,0
	c-0.3-0.1-0.6,0-0.8,0.3c0,0-0.1,0.1-0.1,0.2c0,0,0,0,0,0.1C125.2,323.8,125.4,324.2,125.8,324.3L125.8,324.3z M124.5,330.8
	c0.3,0,0.5-0.1,0.6-0.3c0.1-0.1,0.1-0.2,0.1-0.3v-0.1c0-0.4-0.3-0.7-0.6-0.7c0,0,0,0,0,0c-0.3,0-0.5,0.1-0.6,0.3
	c-0.1,0.1-0.1,0.2-0.1,0.3v0.1C123.9,330.4,124.2,330.7,124.5,330.8L124.5,330.8z M127,321.3c0.3,0.1,0.7,0,0.9-0.2c0,0,0-0.1,0-0.1
	v-0.1c0.1-0.3,0-0.7-0.3-0.8c0,0,0,0,0,0c-0.3-0.1-0.7,0-0.9,0.2c0,0,0,0.1,0,0.1c0,0,0,0,0,0.1C126.5,320.7,126.6,321.1,127,321.3
	L127,321.3z M125,327.5c0.3,0.1,0.6-0.1,0.8-0.3c0-0.1,0.1-0.2,0.1-0.2v-0.1c0.1-0.4-0.2-0.7-0.5-0.8c0,0,0,0,0,0
	c-0.3-0.1-0.6,0.1-0.8,0.3c0,0.1-0.1,0.2-0.1,0.2v0.1l0,0C124.3,327.1,124.6,327.4,125,327.5C124.9,327.5,124.9,327.5,125,327.5
	L125,327.5z M144.8,305.8L144.8,305.8c0.2-0.1,0.3-0.1,0.4-0.3c0.1-0.2,0.1-0.4,0.1-0.6c-0.2-0.3-0.6-0.5-0.9-0.4c0,0,0,0-0.1,0
	c-0.1,0.1-0.2,0.1-0.3,0.3c-0.1,0.2-0.1,0.4-0.1,0.6C144.1,305.7,144.4,305.8,144.8,305.8L144.8,305.8z M138.8,308.8
	c0.1,0,0.1-0.1,0.2-0.2c0.1-0.2,0.1-0.5,0-0.7c-0.2-0.3-0.7-0.4-1-0.2l0,0l0,0c-0.1,0-0.1,0.1-0.2,0.2c-0.1,0.2-0.1,0.5,0,0.7
	C138,308.9,138.5,309,138.8,308.8L138.8,308.8L138.8,308.8z M136.9,355.6c-0.3-0.2-0.7-0.2-1,0.1c0,0,0,0,0,0.1
	c-0.2,0.3-0.1,0.7,0.1,0.9l0,0l0,0c0.3,0.2,0.7,0.2,1-0.1c0,0,0,0,0-0.1C137.3,356.1,137.2,355.8,136.9,355.6z M139.8,357.4
	L139.8,357.4c-0.4-0.2-0.8-0.1-1.1,0.2l0,0c-0.2,0.3-0.1,0.7,0.2,0.9c0,0,0,0,0.1,0l0,0l0,0c0.3,0.2,0.8,0.1,1-0.2l0,0
	C140.2,358.1,140.1,357.7,139.8,357.4C139.8,357.4,139.8,357.4,139.8,357.4L139.8,357.4z M143.1,360C143.1,360,143.1,360,143.1,360
	c0.2-0.4,0.1-0.7-0.2-0.9c0,0-0.1,0-0.1,0h-0.1c-0.3-0.1-0.7,0-0.9,0.2c0,0,0,0,0,0.1c-0.2,0.3-0.1,0.7,0.2,0.8c0,0,0.1,0,0.1,0
	c0,0,0,0,0.1,0l0,0C142.5,360.3,142.9,360.2,143.1,360L143.1,360z M142,306.8c0.1-0.2,0.1-0.5,0-0.7c-0.2-0.4-0.6-0.5-1-0.3
	c0,0,0,0,0,0l0,0l0,0c-0.1,0.1-0.2,0.1-0.2,0.2c-0.1,0.2-0.1,0.5,0,0.7c0.2,0.4,0.6,0.5,1,0.3c0,0,0,0,0,0h0.1
	C141.9,307,142,306.9,142,306.8z M133.6,312.8c0,0,0.1-0.1,0.1-0.1c0.2-0.3,0.1-0.6-0.1-0.8c-0.3-0.2-0.7-0.2-1,0l0,0l0,0
	c0,0,0,0.1-0.1,0.1c-0.2,0.3-0.1,0.6,0.1,0.8C132.9,313.1,133.3,313.1,133.6,312.8z M131.4,315.4L131.4,315.4L131.4,315.4
	c0.2-0.3,0.1-0.7-0.1-0.9c0,0,0,0,0,0c-0.3-0.2-0.8-0.2-1,0.1l0,0l0,0l0,0c-0.2,0.3-0.1,0.7,0.1,0.9c0,0,0,0,0,0
	C130.6,315.6,131.1,315.6,131.4,315.4L131.4,315.4z M132,351c-0.3-0.3-0.7-0.3-1-0.1c-0.1,0-0.1,0.1-0.1,0.2c-0.2,0.2-0.2,0.5,0,0.8
	l0,0l0,0l0,0c0.3,0.3,0.7,0.3,1,0.1c0.1,0,0.1-0.1,0.1-0.2C132.2,351.5,132.2,351.2,132,351z M134.3,353.4c-0.3-0.3-0.7-0.3-1,0
	l-0.1,0.1c-0.2,0.3-0.1,0.6,0.1,0.8l0,0l0,0c0.3,0.3,0.7,0.3,1,0l0.1-0.1C134.6,353.9,134.5,353.6,134.3,353.4z M130,348.4
	c-0.2-0.3-0.7-0.4-1-0.2l-0.2,0.2c-0.1,0.2-0.1,0.5,0,0.7l0,0v0.1c0.2,0.3,0.7,0.4,1,0.2l0.2-0.2C130.1,348.9,130.1,348.7,130,348.4
	L130,348.4L130,348.4z M136,310.6l0.1-0.1c0.2-0.2,0.1-0.6-0.1-0.8c-0.3-0.3-0.7-0.3-1-0.1l0,0l0,0l-0.1,0.1
	c-0.2,0.2-0.1,0.6,0.1,0.8C135.3,310.8,135.7,310.8,136,310.6z"/>
<path class="st0" d="M67.7,285.1c-0.2,0-0.3,0-0.4-0.1h-0.1c-0.3-0.2-0.3-0.6-0.1-0.9c0,0,0,0,0,0c0.3-0.3,0.7-0.3,1-0.1l0,0
	c0.3,0.2,0.3,0.6,0.1,0.9C68.1,285,67.9,285.1,67.7,285.1z M71,284.7c-0.3,0-0.5-0.1-0.7-0.4c-0.2-0.3,0-0.7,0.3-0.9c0,0,0,0,0,0
	h0.1c0.3-0.1,0.8,0,0.9,0.3c0.1,0.3,0,0.7-0.3,0.8c0,0,0,0,0,0C71.2,284.7,71.1,284.7,71,284.7L71,284.7z M74.3,283.4
	c-0.3,0-0.5-0.1-0.6-0.4c-0.2-0.3,0-0.7,0.3-0.9c0,0,0,0,0,0h0.1c0.3-0.1,0.8,0,0.9,0.3c0.1,0.3,0,0.7-0.3,0.8c0,0,0,0,0,0
	C74.6,283.4,74.4,283.4,74.3,283.4L74.3,283.4z M66,282.2c-0.3,0-0.5-0.1-0.6-0.4v-0.1c-0.2-0.3,0-0.7,0.3-0.8c0,0,0,0,0.1,0
	c0.3-0.2,0.8,0,0.9,0.3v0.1c0.2,0.3,0,0.7-0.3,0.8c0,0,0,0-0.1,0C66.2,282.2,66.1,282.2,66,282.2z M77.6,282c-0.3,0-0.5-0.1-0.6-0.4
	c-0.2-0.3,0-0.7,0.3-0.9c0,0,0,0,0,0h0.1c0.3-0.1,0.8,0,0.9,0.3c0.1,0.3,0,0.7-0.3,0.8c0,0,0,0,0,0C77.8,282,77.7,282,77.6,282
	L77.6,282z M80.9,280.7c-0.3,0-0.5-0.1-0.7-0.4c-0.2-0.3,0-0.7,0.3-0.9c0,0,0,0,0,0h0.1c0.3-0.1,0.8,0,0.9,0.3
	c0.1,0.3,0,0.7-0.3,0.8c0,0,0,0,0,0C81.1,280.6,81,280.7,80.9,280.7L80.9,280.7z M84.2,279.3c-0.3,0-0.5-0.1-0.7-0.4
	c-0.2-0.3,0-0.7,0.3-0.9c0,0,0,0,0,0h0.1c0.3-0.1,0.8,0,0.9,0.3c0.1,0.3,0,0.7-0.3,0.8c0,0,0,0,0,0
	C84.4,279.3,84.3,279.3,84.2,279.3L84.2,279.3z M64.5,279.2c-0.3,0-0.5-0.1-0.6-0.4v-0.1c-0.2-0.3,0-0.7,0.3-0.8c0,0,0,0,0.1,0
	c0.3-0.2,0.8,0,0.9,0.3v0.1c0.2,0.3,0,0.7-0.3,0.8c0,0,0,0-0.1,0C64.7,279.1,64.6,279.2,64.5,279.2L64.5,279.2z M87.5,278
	c-0.3,0-0.5-0.1-0.6-0.4c-0.1-0.3,0-0.7,0.3-0.8c0,0,0,0,0,0h0.1c0.3-0.1,0.8,0,0.9,0.3c0.1,0.3,0,0.7-0.3,0.8c0,0,0,0,0,0h-0.1
	C87.7,278,87.6,278,87.5,278L87.5,278z M90.8,276.6c-0.3,0-0.5-0.1-0.6-0.4c-0.1-0.3,0-0.7,0.3-0.8c0,0,0,0,0,0h0.1
	c0.3-0.1,0.8,0,0.9,0.3c0.1,0.3,0,0.7-0.3,0.8c0,0,0,0,0,0h-0.1C91,276.6,90.9,276.7,90.8,276.6L90.8,276.6z M63,276.1
	c-0.3,0-0.5-0.1-0.6-0.4v-0.1c-0.2-0.3,0-0.7,0.3-0.8c0,0,0,0,0.1,0c0.3-0.2,0.8,0,0.9,0.3v0.1c0.2,0.3,0,0.7-0.3,0.8c0,0,0,0-0.1,0
	C63.2,276.1,63.1,276.1,63,276.1z M94.1,275.3c-0.3,0-0.5-0.1-0.6-0.4c-0.1-0.3,0-0.7,0.3-0.8c0,0,0,0,0,0h0.1
	c0.3-0.1,0.8,0,0.9,0.3c0.1,0.3,0,0.7-0.3,0.8c0,0,0,0,0,0h-0.1C94.3,275.3,94.2,275.3,94.1,275.3L94.1,275.3z M97.4,274
	c-0.3,0-0.5-0.1-0.6-0.4c-0.1-0.3,0-0.7,0.3-0.8c0,0,0,0,0,0h0.1c0.3-0.1,0.8,0,0.9,0.3c0.1,0.3,0,0.7-0.3,0.8c0,0,0,0,0,0h-0.1
	C97.6,273.9,97.5,274,97.4,274L97.4,274z M61.5,273.1c-0.3,0-0.5-0.1-0.6-0.4v-0.1c-0.2-0.3,0-0.7,0.3-0.8c0,0,0,0,0.1,0
	c0.3-0.2,0.8,0,0.9,0.3v0.1c0.2,0.3,0,0.7-0.3,0.8c0,0,0,0-0.1,0C61.7,273.1,61.6,273.1,61.5,273.1L61.5,273.1z M100.7,272.6
	c-0.3,0-0.5-0.1-0.6-0.4c-0.1-0.3,0-0.7,0.3-0.8c0,0,0,0,0,0h0.1c0.3-0.1,0.8,0,0.9,0.3c0.1,0.3,0,0.7-0.3,0.8c0,0,0,0,0,0h-0.1
	C100.9,272.6,100.8,272.6,100.7,272.6L100.7,272.6z M104,271.2c-0.3,0-0.5-0.1-0.6-0.4c-0.2-0.3,0-0.7,0.3-0.9c0,0,0,0,0,0h0.1
	c0.3-0.1,0.8,0,0.9,0.3c0.1,0.3,0,0.7-0.3,0.8c0,0,0,0,0,0C104.2,271.2,104.1,271.3,104,271.2z M60,270.1c-0.3,0-0.5-0.1-0.6-0.4
	v-0.1c-0.2-0.3,0-0.7,0.3-0.8c0,0,0,0,0.1,0c0.3-0.2,0.8,0,0.9,0.3v0.1c0.2,0.3,0,0.7-0.3,0.8c0,0,0,0-0.1,0
	C60.2,270,60.1,270.1,60,270.1z M107.2,269.9c-0.3,0-0.5-0.1-0.6-0.4c-0.1-0.3,0-0.7,0.3-0.8c0,0,0,0,0,0h0.1c0.3-0.1,0.8,0,0.9,0.3
	c0.1,0.3,0,0.7-0.3,0.8c0,0,0,0,0,0h-0.1C107.4,269.9,107.3,269.9,107.2,269.9z M110.6,268.5c-0.3,0-0.5-0.1-0.7-0.4
	c-0.2-0.3,0-0.7,0.3-0.9c0,0,0,0,0,0h0.1c0.3-0.1,0.8,0,0.9,0.3c0.1,0.3,0,0.7-0.3,0.8c0,0,0,0,0,0
	C110.8,268.5,110.7,268.6,110.6,268.5L110.6,268.5z M113.8,267.2c-0.3,0-0.5-0.1-0.6-0.4c-0.1-0.3,0-0.7,0.3-0.8c0,0,0,0,0,0h0.1
	c0.3-0.1,0.8,0,0.9,0.3c0.1,0.3,0,0.7-0.3,0.8c0,0,0,0,0,0h-0.1C114,267.2,114,267.2,113.8,267.2L113.8,267.2z M58.4,267
	c-0.3,0-0.5-0.1-0.6-0.4v-0.1c-0.2-0.3,0-0.7,0.3-0.8c0,0,0,0,0.1,0c0.3-0.2,0.8,0,0.9,0.3v0.1c0.2,0.3,0,0.7-0.3,0.8c0,0,0,0-0.1,0
	C58.7,267,58.6,267,58.4,267L58.4,267z M117.2,265.9c-0.3,0-0.5-0.1-0.7-0.4c-0.2-0.3,0-0.7,0.3-0.9c0,0,0,0,0,0h0.1
	c0.3-0.1,0.8,0,0.9,0.3c0.1,0.3,0,0.7-0.3,0.8c0,0,0,0,0,0C117.4,265.9,117.3,265.9,117.2,265.9z M57.3,263.9h-0.1
	c-0.4-0.1-0.6-0.4-0.5-0.8c0,0,0,0,0,0c0,0,0-0.1,0-0.1c0.1-0.4,0.5-0.6,0.9-0.5c0.3,0.1,0.6,0.4,0.5,0.7c0,0,0,0.1,0,0.1l-0.7-0.2
	l0.7,0.2C57.9,263.7,57.6,263.9,57.3,263.9z M60.1,262c-0.3,0-0.5-0.1-0.6-0.4c-0.2-0.3,0-0.7,0.3-0.8c0,0,0,0,0.1,0h0.1
	c0.3-0.2,0.8,0,0.9,0.3c0.1,0.3,0,0.7-0.3,0.8c0,0,0,0,0,0h-0.1C60.3,262,60.2,262,60.1,262L60.1,262z M63.3,260.6
	c-0.3,0-0.5-0.1-0.6-0.4c-0.2-0.3,0-0.7,0.3-0.8c0,0,0,0,0.1,0h0.1c0.3-0.2,0.8,0,0.9,0.3c0.2,0.3,0,0.7-0.3,0.8c0,0,0,0-0.1,0h-0.1
	C63.5,260.6,63.5,260.6,63.3,260.6L63.3,260.6z M66.6,259.2c-0.3,0-0.5-0.1-0.6-0.3c-0.2-0.3,0-0.7,0.3-0.8c0,0,0,0,0.1,0h0.1
	c0.3-0.2,0.8,0,0.9,0.3c0.2,0.3,0,0.7-0.3,0.8c0,0,0,0-0.1,0h-0.1C66.8,259.2,66.7,259.2,66.6,259.2L66.6,259.2z M69.9,257.8
	c-0.3,0-0.5-0.2-0.6-0.4c-0.2-0.3,0-0.7,0.3-0.8c0,0,0,0,0.1,0c0.4-0.2,0.8-0.1,1,0.3c0,0,0,0,0,0c0.2,0.3,0,0.7-0.2,0.8
	c0,0,0,0-0.1,0h-0.1C70.1,257.8,70,257.8,69.9,257.8L69.9,257.8z M73.2,256.4c-0.3,0-0.5-0.1-0.6-0.4c-0.2-0.3,0-0.7,0.3-0.8
	c0,0,0,0,0.1,0H73c0.3-0.2,0.8,0,0.9,0.3c0.2,0.3,0,0.7-0.3,0.8c0,0,0,0-0.1,0h-0.1C73.4,256.4,73.3,256.4,73.2,256.4L73.2,256.4z
	 M76.4,255.1c-0.3,0-0.5-0.2-0.6-0.4c-0.2-0.3,0-0.7,0.3-0.8c0,0,0,0,0.1,0c0.4-0.2,0.8-0.1,1,0.3c0,0,0,0,0,0
	c0.2,0.3,0,0.7-0.2,0.8c0,0,0,0-0.1,0h-0.1C76.7,255,76.6,255,76.4,255.1L76.4,255.1z M79.7,253.7c-0.3,0-0.5-0.2-0.6-0.4
	c-0.2-0.3,0-0.7,0.3-0.8c0,0,0,0,0.1,0c0.4-0.2,0.8-0.1,1,0.3c0,0,0,0,0,0c0.2,0.3,0,0.7-0.2,0.8c0,0,0,0-0.1,0H80
	C79.9,253.6,79.8,253.6,79.7,253.7L79.7,253.7z"/>
<path class="st0" d="M108.8,224.9l-3.8,9.2c-0.2,0.4-0.7,0.6-1.1,0.4c-0.1,0-0.2-0.1-0.3-0.2c-3.5-4-7.9-7.1-12.9-9
	c-5.8-2.1-8.9-1.8-10.3-1.4c-0.2,0.1-0.5,0-0.5-0.2c0-0.1,0-0.2,0-0.3c0.4-0.7,0.9-1.4,1.4-2c1.3-1.5,3.8-3.4,4.4-4.9
	c1.4-3.3,0.2-6.7,1-8.5s2.3-2.7,6.5-1.2c8.6,3.1,14.4,14.4,15.7,17C109,224.1,109,224.5,108.8,224.9z"/>
<path class="st0" d="M99.5,234.7c0.1,0.1,0.2,0,0.3-0.1c0.1-0.1,0-0.2-0.1-0.3l0,0c-1.5-1.4-5.5-5-10-6.6c-5.5-2-9-1.9-9.5-0.9
	c-0.2,0.5,0.8,2.2,3.8,3.5S96.7,234,99.5,234.7z"/>
<path class="st0" d="M107.6,238.3c-2.2-0.2-8.1-1.2-20.2-4.9c-0.3-0.1-0.6-0.1-0.9,0.1c-5.1,2.4-10.5,4.3-16.1,5.6
	c-0.2,0-0.4,0.3-0.3,0.5c0,0.2,0.2,0.3,0.3,0.3c2.7,0.9,6.1,2.5,6.2,3.7s-1.6,4.4-3.4,6.9c-0.1,0.2-0.1,0.5,0.1,0.6
	c0.1,0.1,0.2,0.1,0.3,0.1c5.4-0.8,24.7-4.2,34.3-12.2c0.2-0.2,0.2-0.4,0-0.6C107.9,238.3,107.8,238.3,107.6,238.3z"/>
<path class="st0" d="M113.9,238.8l-4.6-1.7c-1.2-0.4-1.9-1.7-1.5-2.9c0-0.1,0-0.1,0.1-0.2l2.8-6.6c0.6-1.3,2-1.8,3.3-1.4l4.6,1.7
	c1.2,0.4,1.9,1.7,1.5,2.9c0,0.1,0,0.1-0.1,0.2l-2.8,6.6C116.6,238.7,115.1,239.3,113.9,238.8z"/>
<path class="st0" d="M123,230l-3.8,9.2c-0.1,0.4,0.1,0.8,0.5,1c0.1,0,0.3,0,0.4,0c5.4-0.8,10.9-0.3,16.1,1.5
	c5.9,2.1,7.9,4.3,8.7,5.5c0.1,0.2,0.4,0.3,0.6,0.2c0.1-0.1,0.2-0.2,0.2-0.3c0.2-0.8,0.3-1.5,0.4-2.3c0.1-2-0.3-4.9,0.3-6.4
	c1.4-3.3,4.7-5,5.5-6.9s0.2-3.4-3.9-4.9c-8.6-3.1-21.1,1.6-24,2.7C123.4,229.4,123.1,229.6,123,230z"/>
<path class="st0" d="M122.8,243.1c-0.1,0-0.2-0.2-0.1-0.3c0-0.1,0.1-0.1,0.2-0.1c2.1-0.1,7.8-0.2,12.2,1.4c5.5,2,8.1,4.2,7.6,5.3
	c-0.2,0.5-2.1,1.1-5.3,0.3S125.4,244.4,122.8,243.1z"/>
<path class="st0" d="M114.2,240.6c1.8,1.2,6.9,4.2,18.4,9.1c0.3,0.1,0.5,0.3,0.6,0.6c2.1,5,4.7,9.8,7.8,14.2c0.1,0.2,0,0.5-0.2,0.6
	c-0.1,0.1-0.3,0.1-0.4,0c-2.6-1-6.4-2-7.3-1.1s-2.1,4.3-2.5,7.2c-0.1,0.3-0.3,0.4-0.6,0.3c-0.1,0-0.2-0.1-0.2-0.1
	c-3.4-4-15.2-18.5-16.4-30.4c0-0.3,0.2-0.5,0.4-0.5C114,240.5,114.1,240.6,114.2,240.6z"/>
</svg>
